<svg xmlns="http://www.w3.org/2000/svg" xmlns:xlink="http://www.w3.org/1999/xlink" width="600" height="400" viewBox="0 0 2400 1600">
<defs>
  <clipPath id="clip960">
    <rect x="0" y="0" width="2400" height="1600"></rect>
  </clipPath>
</defs>
<path clip-path="url(#clip960)" d="M0 1600 L2400 1600 L2400 0 L0 0  Z" fill="#ffffff" fill-rule="evenodd" fill-opacity="1"></path>
<defs>
  <clipPath id="clip961">
    <rect x="480" y="0" width="1681" height="1600"></rect>
  </clipPath>
</defs>
<path clip-path="url(#clip960)" d="M310.352 1423.18 L2352.76 1423.18 L2352.76 47.2441 L310.352 47.2441  Z" fill="#ffffff" fill-rule="evenodd" fill-opacity="1"></path>
<defs>
  <clipPath id="clip962">
    <rect x="310" y="47" width="2043" height="1377"></rect>
  </clipPath>
</defs>
<polyline clip-path="url(#clip962)" style="stroke:#000000; stroke-linecap:round; stroke-linejoin:round; stroke-width:2; stroke-opacity:0.1; fill:none" points="324.735,1423.18 324.735,47.2441 "></polyline>
<polyline clip-path="url(#clip962)" style="stroke:#000000; stroke-linecap:round; stroke-linejoin:round; stroke-width:2; stroke-opacity:0.1; fill:none" points="784.724,1423.18 784.724,47.2441 "></polyline>
<polyline clip-path="url(#clip962)" style="stroke:#000000; stroke-linecap:round; stroke-linejoin:round; stroke-width:2; stroke-opacity:0.1; fill:none" points="1244.71,1423.18 1244.71,47.2441 "></polyline>
<polyline clip-path="url(#clip962)" style="stroke:#000000; stroke-linecap:round; stroke-linejoin:round; stroke-width:2; stroke-opacity:0.1; fill:none" points="1704.7,1423.18 1704.7,47.2441 "></polyline>
<polyline clip-path="url(#clip962)" style="stroke:#000000; stroke-linecap:round; stroke-linejoin:round; stroke-width:2; stroke-opacity:0.1; fill:none" points="2164.69,1423.18 2164.69,47.2441 "></polyline>
<polyline clip-path="url(#clip960)" style="stroke:#000000; stroke-linecap:round; stroke-linejoin:round; stroke-width:4; stroke-opacity:1; fill:none" points="310.352,1423.18 2352.76,1423.18 "></polyline>
<polyline clip-path="url(#clip960)" style="stroke:#000000; stroke-linecap:round; stroke-linejoin:round; stroke-width:4; stroke-opacity:1; fill:none" points="324.735,1423.18 324.735,1404.28 "></polyline>
<polyline clip-path="url(#clip960)" style="stroke:#000000; stroke-linecap:round; stroke-linejoin:round; stroke-width:4; stroke-opacity:1; fill:none" points="784.724,1423.18 784.724,1404.28 "></polyline>
<polyline clip-path="url(#clip960)" style="stroke:#000000; stroke-linecap:round; stroke-linejoin:round; stroke-width:4; stroke-opacity:1; fill:none" points="1244.71,1423.18 1244.71,1404.28 "></polyline>
<polyline clip-path="url(#clip960)" style="stroke:#000000; stroke-linecap:round; stroke-linejoin:round; stroke-width:4; stroke-opacity:1; fill:none" points="1704.7,1423.18 1704.7,1404.28 "></polyline>
<polyline clip-path="url(#clip960)" style="stroke:#000000; stroke-linecap:round; stroke-linejoin:round; stroke-width:4; stroke-opacity:1; fill:none" points="2164.69,1423.18 2164.69,1404.28 "></polyline>
<path clip-path="url(#clip960)" d="M291.888 1481.64 L299.527 1481.64 L299.527 1455.28 L291.217 1456.95 L291.217 1452.69 L299.481 1451.02 L304.157 1451.02 L304.157 1481.64 L311.795 1481.64 L311.795 1485.58 L291.888 1485.58 L291.888 1481.64 Z" fill="#000000" fill-rule="nonzero" fill-opacity="1"></path><path clip-path="url(#clip960)" d="M321.24 1479.7 L326.124 1479.7 L326.124 1485.58 L321.24 1485.58 L321.24 1479.7 Z" fill="#000000" fill-rule="nonzero" fill-opacity="1"></path><path clip-path="url(#clip960)" d="M346.309 1454.1 Q342.698 1454.1 340.869 1457.66 Q339.064 1461.2 339.064 1468.33 Q339.064 1475.44 340.869 1479.01 Q342.698 1482.55 346.309 1482.55 Q349.943 1482.55 351.749 1479.01 Q353.578 1475.44 353.578 1468.33 Q353.578 1461.2 351.749 1457.66 Q349.943 1454.1 346.309 1454.1 M346.309 1450.39 Q352.119 1450.39 355.175 1455 Q358.253 1459.58 358.253 1468.33 Q358.253 1477.06 355.175 1481.67 Q352.119 1486.25 346.309 1486.25 Q340.499 1486.25 337.42 1481.67 Q334.365 1477.06 334.365 1468.33 Q334.365 1459.58 337.42 1455 Q340.499 1450.39 346.309 1450.39 Z" fill="#000000" fill-rule="nonzero" fill-opacity="1"></path><path clip-path="url(#clip960)" d="M752.374 1481.64 L760.013 1481.64 L760.013 1455.28 L751.703 1456.95 L751.703 1452.69 L759.967 1451.02 L764.643 1451.02 L764.643 1481.64 L772.282 1481.64 L772.282 1485.58 L752.374 1485.58 L752.374 1481.64 Z" fill="#000000" fill-rule="nonzero" fill-opacity="1"></path><path clip-path="url(#clip960)" d="M781.726 1479.7 L786.61 1479.7 L786.61 1485.58 L781.726 1485.58 L781.726 1479.7 Z" fill="#000000" fill-rule="nonzero" fill-opacity="1"></path><path clip-path="url(#clip960)" d="M796.842 1451.02 L815.198 1451.02 L815.198 1454.96 L801.124 1454.96 L801.124 1463.43 Q802.143 1463.08 803.161 1462.92 Q804.18 1462.73 805.198 1462.73 Q810.985 1462.73 814.365 1465.9 Q817.744 1469.08 817.744 1474.49 Q817.744 1480.07 814.272 1483.17 Q810.8 1486.25 804.481 1486.25 Q802.305 1486.25 800.036 1485.88 Q797.791 1485.51 795.383 1484.77 L795.383 1480.07 Q797.467 1481.2 799.689 1481.76 Q801.911 1482.32 804.388 1482.32 Q808.393 1482.32 810.731 1480.21 Q813.069 1478.1 813.069 1474.49 Q813.069 1470.88 810.731 1468.77 Q808.393 1466.67 804.388 1466.67 Q802.513 1466.67 800.638 1467.08 Q798.786 1467.5 796.842 1468.38 L796.842 1451.02 Z" fill="#000000" fill-rule="nonzero" fill-opacity="1"></path><path clip-path="url(#clip960)" d="M1215.95 1481.64 L1232.27 1481.64 L1232.27 1485.58 L1210.33 1485.58 L1210.33 1481.64 Q1212.99 1478.89 1217.57 1474.26 Q1222.18 1469.61 1223.36 1468.27 Q1225.6 1465.74 1226.48 1464.01 Q1227.39 1462.25 1227.39 1460.56 Q1227.39 1457.8 1225.44 1456.07 Q1223.52 1454.33 1220.42 1454.33 Q1218.22 1454.33 1215.77 1455.09 Q1213.34 1455.86 1210.56 1457.41 L1210.56 1452.69 Q1213.38 1451.55 1215.84 1450.97 Q1218.29 1450.39 1220.33 1450.39 Q1225.7 1450.39 1228.89 1453.08 Q1232.09 1455.77 1232.09 1460.26 Q1232.09 1462.39 1231.28 1464.31 Q1230.49 1466.2 1228.38 1468.8 Q1227.8 1469.47 1224.7 1472.69 Q1221.6 1475.88 1215.95 1481.64 Z" fill="#000000" fill-rule="nonzero" fill-opacity="1"></path><path clip-path="url(#clip960)" d="M1242.09 1479.7 L1246.97 1479.7 L1246.97 1485.58 L1242.09 1485.58 L1242.09 1479.7 Z" fill="#000000" fill-rule="nonzero" fill-opacity="1"></path><path clip-path="url(#clip960)" d="M1267.15 1454.1 Q1263.54 1454.1 1261.71 1457.66 Q1259.91 1461.2 1259.91 1468.33 Q1259.91 1475.44 1261.71 1479.01 Q1263.54 1482.55 1267.15 1482.55 Q1270.79 1482.55 1272.59 1479.01 Q1274.42 1475.44 1274.42 1468.33 Q1274.42 1461.2 1272.59 1457.66 Q1270.79 1454.1 1267.15 1454.1 M1267.15 1450.39 Q1272.96 1450.39 1276.02 1455 Q1279.1 1459.58 1279.1 1468.33 Q1279.1 1477.06 1276.02 1481.67 Q1272.96 1486.25 1267.15 1486.25 Q1261.34 1486.25 1258.27 1481.67 Q1255.21 1477.06 1255.21 1468.33 Q1255.21 1459.58 1258.27 1455 Q1261.34 1450.39 1267.15 1450.39 Z" fill="#000000" fill-rule="nonzero" fill-opacity="1"></path><path clip-path="url(#clip960)" d="M1676.44 1481.64 L1692.76 1481.64 L1692.76 1485.58 L1670.81 1485.58 L1670.81 1481.64 Q1673.47 1478.89 1678.06 1474.26 Q1682.66 1469.61 1683.84 1468.27 Q1686.09 1465.74 1686.97 1464.01 Q1687.87 1462.25 1687.87 1460.56 Q1687.87 1457.8 1685.93 1456.07 Q1684.01 1454.33 1680.91 1454.33 Q1678.71 1454.33 1676.25 1455.09 Q1673.82 1455.86 1671.04 1457.41 L1671.04 1452.69 Q1673.87 1451.55 1676.32 1450.97 Q1678.78 1450.39 1680.81 1450.39 Q1686.18 1450.39 1689.38 1453.08 Q1692.57 1455.77 1692.57 1460.26 Q1692.57 1462.39 1691.76 1464.31 Q1690.97 1466.2 1688.87 1468.8 Q1688.29 1469.47 1685.19 1472.69 Q1682.09 1475.88 1676.44 1481.64 Z" fill="#000000" fill-rule="nonzero" fill-opacity="1"></path><path clip-path="url(#clip960)" d="M1702.57 1479.7 L1707.46 1479.7 L1707.46 1485.58 L1702.57 1485.58 L1702.57 1479.7 Z" fill="#000000" fill-rule="nonzero" fill-opacity="1"></path><path clip-path="url(#clip960)" d="M1717.69 1451.02 L1736.04 1451.02 L1736.04 1454.96 L1721.97 1454.96 L1721.97 1463.43 Q1722.99 1463.08 1724.01 1462.92 Q1725.03 1462.73 1726.04 1462.73 Q1731.83 1462.73 1735.21 1465.9 Q1738.59 1469.08 1738.59 1474.49 Q1738.59 1480.07 1735.12 1483.17 Q1731.65 1486.25 1725.33 1486.25 Q1723.15 1486.25 1720.88 1485.88 Q1718.64 1485.51 1716.23 1484.77 L1716.23 1480.07 Q1718.31 1481.2 1720.53 1481.76 Q1722.76 1482.32 1725.23 1482.32 Q1729.24 1482.32 1731.58 1480.21 Q1733.91 1478.1 1733.91 1474.49 Q1733.91 1470.88 1731.58 1468.77 Q1729.24 1466.67 1725.23 1466.67 Q1723.36 1466.67 1721.48 1467.08 Q1719.63 1467.5 1717.69 1468.38 L1717.69 1451.02 Z" fill="#000000" fill-rule="nonzero" fill-opacity="1"></path><path clip-path="url(#clip960)" d="M2146 1466.95 Q2149.35 1467.66 2151.23 1469.93 Q2153.13 1472.2 2153.13 1475.53 Q2153.13 1480.65 2149.61 1483.45 Q2146.09 1486.25 2139.61 1486.25 Q2137.43 1486.25 2135.12 1485.81 Q2132.83 1485.39 2130.37 1484.54 L2130.37 1480.02 Q2132.32 1481.16 2134.63 1481.74 Q2136.95 1482.32 2139.47 1482.32 Q2143.87 1482.32 2146.16 1480.58 Q2148.47 1478.84 2148.47 1475.53 Q2148.47 1472.48 2146.32 1470.77 Q2144.19 1469.03 2140.37 1469.03 L2136.35 1469.03 L2136.35 1465.19 L2140.56 1465.19 Q2144.01 1465.19 2145.84 1463.82 Q2147.66 1462.43 2147.66 1459.84 Q2147.66 1457.18 2145.77 1455.77 Q2143.89 1454.33 2140.37 1454.33 Q2138.45 1454.33 2136.25 1454.75 Q2134.05 1455.16 2131.41 1456.04 L2131.41 1451.88 Q2134.08 1451.14 2136.39 1450.77 Q2138.73 1450.39 2140.79 1450.39 Q2146.11 1450.39 2149.22 1452.83 Q2152.32 1455.23 2152.32 1459.35 Q2152.32 1462.22 2150.67 1464.21 Q2149.03 1466.18 2146 1466.95 Z" fill="#000000" fill-rule="nonzero" fill-opacity="1"></path><path clip-path="url(#clip960)" d="M2161.99 1479.7 L2166.88 1479.7 L2166.88 1485.58 L2161.99 1485.58 L2161.99 1479.7 Z" fill="#000000" fill-rule="nonzero" fill-opacity="1"></path><path clip-path="url(#clip960)" d="M2187.06 1454.1 Q2183.45 1454.1 2181.62 1457.66 Q2179.82 1461.2 2179.82 1468.33 Q2179.82 1475.44 2181.62 1479.01 Q2183.45 1482.55 2187.06 1482.55 Q2190.7 1482.55 2192.5 1479.01 Q2194.33 1475.44 2194.33 1468.33 Q2194.33 1461.2 2192.5 1457.66 Q2190.7 1454.1 2187.06 1454.1 M2187.06 1450.39 Q2192.87 1450.39 2195.93 1455 Q2199.01 1459.58 2199.01 1468.33 Q2199.01 1477.06 2195.93 1481.67 Q2192.87 1486.25 2187.06 1486.25 Q2181.25 1486.25 2178.17 1481.67 Q2175.12 1477.06 2175.12 1468.33 Q2175.12 1459.58 2178.17 1455 Q2181.25 1450.39 2187.06 1450.39 Z" fill="#000000" fill-rule="nonzero" fill-opacity="1"></path><path clip-path="url(#clip960)" d="M1252.84 1545.45 L1232.57 1545.45 Q1233.04 1554.96 1235.24 1559 Q1237.98 1563.97 1242.72 1563.97 Q1247.49 1563.97 1250.14 1558.97 Q1252.46 1554.58 1252.84 1545.45 M1252.75 1540.03 Q1251.86 1531 1250.14 1527.81 Q1247.4 1522.78 1242.72 1522.78 Q1237.85 1522.78 1235.27 1527.75 Q1233.24 1531.76 1232.63 1540.03 L1252.75 1540.03 M1242.72 1518.01 Q1250.36 1518.01 1254.72 1524.76 Q1259.08 1531.47 1259.08 1543.38 Q1259.08 1555.25 1254.72 1562 Q1250.36 1568.78 1242.72 1568.78 Q1235.05 1568.78 1230.72 1562 Q1226.36 1555.25 1226.36 1543.38 Q1226.36 1531.47 1230.72 1524.76 Q1235.05 1518.01 1242.72 1518.01 Z" fill="#000000" fill-rule="nonzero" fill-opacity="1"></path><path clip-path="url(#clip960)" d="M1288.97 1518.52 L1302.46 1518.52 L1302.46 1523.07 L1294.82 1523.07 L1294.82 1572.09 L1302.46 1572.09 L1302.46 1576.64 L1288.97 1576.64 L1288.97 1518.52 Z" fill="#000000" fill-rule="nonzero" fill-opacity="1"></path><path clip-path="url(#clip960)" d="M1335.6 1537.87 Q1334.61 1537.3 1333.43 1537.04 Q1332.29 1536.76 1330.89 1536.76 Q1325.92 1536.76 1323.25 1540 Q1320.6 1543.22 1320.6 1549.27 L1320.6 1568.04 L1314.72 1568.04 L1314.72 1532.4 L1320.6 1532.4 L1320.6 1537.93 Q1322.45 1534.69 1325.41 1533.13 Q1328.37 1531.54 1332.6 1531.54 Q1333.21 1531.54 1333.94 1531.63 Q1334.67 1531.7 1335.56 1531.85 L1335.6 1537.87 Z" fill="#000000" fill-rule="nonzero" fill-opacity="1"></path><path clip-path="url(#clip960)" d="M1357.94 1550.12 Q1350.84 1550.12 1348.1 1551.75 Q1345.37 1553.37 1345.37 1557.29 Q1345.37 1560.4 1347.4 1562.25 Q1349.47 1564.07 1353.01 1564.07 Q1357.88 1564.07 1360.8 1560.63 Q1363.76 1557.16 1363.76 1551.43 L1363.76 1550.12 L1357.94 1550.12 M1369.62 1547.71 L1369.62 1568.04 L1363.76 1568.04 L1363.76 1562.63 Q1361.76 1565.88 1358.77 1567.44 Q1355.78 1568.97 1351.45 1568.97 Q1345.97 1568.97 1342.73 1565.91 Q1339.51 1562.82 1339.51 1557.67 Q1339.51 1551.65 1343.52 1548.6 Q1347.56 1545.54 1355.55 1545.54 L1363.76 1545.54 L1363.76 1544.97 Q1363.76 1540.93 1361.09 1538.73 Q1358.45 1536.5 1353.64 1536.5 Q1350.59 1536.5 1347.69 1537.23 Q1344.79 1537.97 1342.12 1539.43 L1342.12 1534.02 Q1345.34 1532.78 1348.36 1532.17 Q1351.38 1531.54 1354.25 1531.54 Q1361.98 1531.54 1365.8 1535.55 Q1369.62 1539.56 1369.62 1547.71 Z" fill="#000000" fill-rule="nonzero" fill-opacity="1"></path><path clip-path="url(#clip960)" d="M1405.14 1537.81 L1405.14 1518.52 L1411 1518.52 L1411 1568.04 L1405.14 1568.04 L1405.14 1562.7 Q1403.3 1565.88 1400.46 1567.44 Q1397.66 1568.97 1393.72 1568.97 Q1387.25 1568.97 1383.18 1563.81 Q1379.14 1558.65 1379.14 1550.25 Q1379.14 1541.85 1383.18 1536.69 Q1387.25 1531.54 1393.72 1531.54 Q1397.66 1531.54 1400.46 1533.1 Q1403.3 1534.62 1405.14 1537.81 M1385.18 1550.25 Q1385.18 1556.71 1387.83 1560.4 Q1390.5 1564.07 1395.15 1564.07 Q1399.79 1564.07 1402.47 1560.4 Q1405.14 1556.71 1405.14 1550.25 Q1405.14 1543.79 1402.47 1540.13 Q1399.79 1536.44 1395.15 1536.44 Q1390.5 1536.44 1387.83 1540.13 Q1385.18 1543.79 1385.18 1550.25 Z" fill="#000000" fill-rule="nonzero" fill-opacity="1"></path><path clip-path="url(#clip960)" d="M1436.75 1518.52 L1436.75 1576.64 L1423.25 1576.64 L1423.25 1572.09 L1430.86 1572.09 L1430.86 1523.07 L1423.25 1523.07 L1423.25 1518.52 L1436.75 1518.52 Z" fill="#000000" fill-rule="nonzero" fill-opacity="1"></path><polyline clip-path="url(#clip962)" style="stroke:#000000; stroke-linecap:round; stroke-linejoin:round; stroke-width:2; stroke-opacity:0.1; fill:none" points="310.352,1312.42 2352.76,1312.42 "></polyline>
<polyline clip-path="url(#clip962)" style="stroke:#000000; stroke-linecap:round; stroke-linejoin:round; stroke-width:2; stroke-opacity:0.1; fill:none" points="310.352,1023 2352.76,1023 "></polyline>
<polyline clip-path="url(#clip962)" style="stroke:#000000; stroke-linecap:round; stroke-linejoin:round; stroke-width:2; stroke-opacity:0.1; fill:none" points="310.352,733.585 2352.76,733.585 "></polyline>
<polyline clip-path="url(#clip962)" style="stroke:#000000; stroke-linecap:round; stroke-linejoin:round; stroke-width:2; stroke-opacity:0.1; fill:none" points="310.352,444.167 2352.76,444.167 "></polyline>
<polyline clip-path="url(#clip962)" style="stroke:#000000; stroke-linecap:round; stroke-linejoin:round; stroke-width:2; stroke-opacity:0.1; fill:none" points="310.352,154.749 2352.76,154.749 "></polyline>
<polyline clip-path="url(#clip960)" style="stroke:#000000; stroke-linecap:round; stroke-linejoin:round; stroke-width:4; stroke-opacity:1; fill:none" points="310.352,1423.18 310.352,47.2441 "></polyline>
<polyline clip-path="url(#clip960)" style="stroke:#000000; stroke-linecap:round; stroke-linejoin:round; stroke-width:4; stroke-opacity:1; fill:none" points="310.352,1312.42 329.25,1312.42 "></polyline>
<polyline clip-path="url(#clip960)" style="stroke:#000000; stroke-linecap:round; stroke-linejoin:round; stroke-width:4; stroke-opacity:1; fill:none" points="310.352,1023 329.25,1023 "></polyline>
<polyline clip-path="url(#clip960)" style="stroke:#000000; stroke-linecap:round; stroke-linejoin:round; stroke-width:4; stroke-opacity:1; fill:none" points="310.352,733.585 329.25,733.585 "></polyline>
<polyline clip-path="url(#clip960)" style="stroke:#000000; stroke-linecap:round; stroke-linejoin:round; stroke-width:4; stroke-opacity:1; fill:none" points="310.352,444.167 329.25,444.167 "></polyline>
<polyline clip-path="url(#clip960)" style="stroke:#000000; stroke-linecap:round; stroke-linejoin:round; stroke-width:4; stroke-opacity:1; fill:none" points="310.352,154.749 329.25,154.749 "></polyline>
<path clip-path="url(#clip960)" d="M126.691 1298.22 Q123.08 1298.22 121.251 1301.79 Q119.445 1305.33 119.445 1312.46 Q119.445 1319.56 121.251 1323.13 Q123.08 1326.67 126.691 1326.67 Q130.325 1326.67 132.13 1323.13 Q133.959 1319.56 133.959 1312.46 Q133.959 1305.33 132.13 1301.79 Q130.325 1298.22 126.691 1298.22 M126.691 1294.52 Q132.501 1294.52 135.556 1299.12 Q138.635 1303.71 138.635 1312.46 Q138.635 1321.18 135.556 1325.79 Q132.501 1330.37 126.691 1330.37 Q120.88 1330.37 117.802 1325.79 Q114.746 1321.18 114.746 1312.46 Q114.746 1303.71 117.802 1299.12 Q120.88 1294.52 126.691 1294.52 Z" fill="#000000" fill-rule="nonzero" fill-opacity="1"></path><path clip-path="url(#clip960)" d="M146.853 1323.82 L151.737 1323.82 L151.737 1329.7 L146.853 1329.7 L146.853 1323.82 Z" fill="#000000" fill-rule="nonzero" fill-opacity="1"></path><path clip-path="url(#clip960)" d="M171.922 1298.22 Q168.311 1298.22 166.482 1301.79 Q164.677 1305.33 164.677 1312.46 Q164.677 1319.56 166.482 1323.13 Q168.311 1326.67 171.922 1326.67 Q175.556 1326.67 177.362 1323.13 Q179.19 1319.56 179.19 1312.46 Q179.19 1305.33 177.362 1301.79 Q175.556 1298.22 171.922 1298.22 M171.922 1294.52 Q177.732 1294.52 180.788 1299.12 Q183.866 1303.71 183.866 1312.46 Q183.866 1321.18 180.788 1325.79 Q177.732 1330.37 171.922 1330.37 Q166.112 1330.37 163.033 1325.79 Q159.978 1321.18 159.978 1312.46 Q159.978 1303.71 163.033 1299.12 Q166.112 1294.52 171.922 1294.52 Z" fill="#000000" fill-rule="nonzero" fill-opacity="1"></path><path clip-path="url(#clip960)" d="M202.084 1298.22 Q198.473 1298.22 196.644 1301.79 Q194.838 1305.33 194.838 1312.46 Q194.838 1319.56 196.644 1323.13 Q198.473 1326.67 202.084 1326.67 Q205.718 1326.67 207.524 1323.13 Q209.352 1319.56 209.352 1312.46 Q209.352 1305.33 207.524 1301.79 Q205.718 1298.22 202.084 1298.22 M202.084 1294.52 Q207.894 1294.52 210.949 1299.12 Q214.028 1303.71 214.028 1312.46 Q214.028 1321.18 210.949 1325.79 Q207.894 1330.37 202.084 1330.37 Q196.274 1330.37 193.195 1325.79 Q190.139 1321.18 190.139 1312.46 Q190.139 1303.71 193.195 1299.12 Q196.274 1294.52 202.084 1294.52 Z" fill="#000000" fill-rule="nonzero" fill-opacity="1"></path><path clip-path="url(#clip960)" d="M232.246 1298.22 Q228.635 1298.22 226.806 1301.79 Q225 1305.33 225 1312.46 Q225 1319.56 226.806 1323.13 Q228.635 1326.67 232.246 1326.67 Q235.88 1326.67 237.685 1323.13 Q239.514 1319.56 239.514 1312.46 Q239.514 1305.33 237.685 1301.79 Q235.88 1298.22 232.246 1298.22 M232.246 1294.52 Q238.056 1294.52 241.111 1299.12 Q244.19 1303.71 244.19 1312.46 Q244.19 1321.18 241.111 1325.79 Q238.056 1330.37 232.246 1330.37 Q226.435 1330.37 223.357 1325.79 Q220.301 1321.18 220.301 1312.46 Q220.301 1303.71 223.357 1299.12 Q226.435 1294.52 232.246 1294.52 Z" fill="#000000" fill-rule="nonzero" fill-opacity="1"></path><path clip-path="url(#clip960)" d="M262.408 1298.22 Q258.796 1298.22 256.968 1301.79 Q255.162 1305.33 255.162 1312.46 Q255.162 1319.56 256.968 1323.13 Q258.796 1326.67 262.408 1326.67 Q266.042 1326.67 267.847 1323.13 Q269.676 1319.56 269.676 1312.46 Q269.676 1305.33 267.847 1301.79 Q266.042 1298.22 262.408 1298.22 M262.408 1294.52 Q268.218 1294.52 271.273 1299.12 Q274.352 1303.71 274.352 1312.46 Q274.352 1321.18 271.273 1325.79 Q268.218 1330.37 262.408 1330.37 Q256.597 1330.37 253.519 1325.79 Q250.463 1321.18 250.463 1312.46 Q250.463 1303.71 253.519 1299.12 Q256.597 1294.52 262.408 1294.52 Z" fill="#000000" fill-rule="nonzero" fill-opacity="1"></path><path clip-path="url(#clip960)" d="M128.288 1008.8 Q124.677 1008.8 122.848 1012.37 Q121.043 1015.91 121.043 1023.04 Q121.043 1030.14 122.848 1033.71 Q124.677 1037.25 128.288 1037.25 Q131.922 1037.25 133.728 1033.71 Q135.556 1030.14 135.556 1023.04 Q135.556 1015.91 133.728 1012.37 Q131.922 1008.8 128.288 1008.8 M128.288 1005.1 Q134.098 1005.1 137.154 1009.71 Q140.232 1014.29 140.232 1023.04 Q140.232 1031.77 137.154 1036.37 Q134.098 1040.95 128.288 1040.95 Q122.478 1040.95 119.399 1036.37 Q116.343 1031.77 116.343 1023.04 Q116.343 1014.29 119.399 1009.71 Q122.478 1005.1 128.288 1005.1 Z" fill="#000000" fill-rule="nonzero" fill-opacity="1"></path><path clip-path="url(#clip960)" d="M148.45 1034.4 L153.334 1034.4 L153.334 1040.28 L148.45 1040.28 L148.45 1034.4 Z" fill="#000000" fill-rule="nonzero" fill-opacity="1"></path><path clip-path="url(#clip960)" d="M173.519 1008.8 Q169.908 1008.8 168.079 1012.37 Q166.274 1015.91 166.274 1023.04 Q166.274 1030.14 168.079 1033.71 Q169.908 1037.25 173.519 1037.25 Q177.153 1037.25 178.959 1033.71 Q180.788 1030.14 180.788 1023.04 Q180.788 1015.91 178.959 1012.37 Q177.153 1008.8 173.519 1008.8 M173.519 1005.1 Q179.329 1005.1 182.385 1009.71 Q185.463 1014.29 185.463 1023.04 Q185.463 1031.77 182.385 1036.37 Q179.329 1040.95 173.519 1040.95 Q167.709 1040.95 164.63 1036.37 Q161.575 1031.77 161.575 1023.04 Q161.575 1014.29 164.63 1009.71 Q167.709 1005.1 173.519 1005.1 Z" fill="#000000" fill-rule="nonzero" fill-opacity="1"></path><path clip-path="url(#clip960)" d="M203.681 1008.8 Q200.07 1008.8 198.241 1012.37 Q196.436 1015.91 196.436 1023.04 Q196.436 1030.14 198.241 1033.71 Q200.07 1037.25 203.681 1037.25 Q207.315 1037.25 209.121 1033.71 Q210.949 1030.14 210.949 1023.04 Q210.949 1015.91 209.121 1012.37 Q207.315 1008.8 203.681 1008.8 M203.681 1005.1 Q209.491 1005.1 212.547 1009.71 Q215.625 1014.29 215.625 1023.04 Q215.625 1031.77 212.547 1036.37 Q209.491 1040.95 203.681 1040.95 Q197.871 1040.95 194.792 1036.37 Q191.737 1031.77 191.737 1023.04 Q191.737 1014.29 194.792 1009.71 Q197.871 1005.1 203.681 1005.1 Z" fill="#000000" fill-rule="nonzero" fill-opacity="1"></path><path clip-path="url(#clip960)" d="M233.843 1008.8 Q230.232 1008.8 228.403 1012.37 Q226.598 1015.91 226.598 1023.04 Q226.598 1030.14 228.403 1033.71 Q230.232 1037.25 233.843 1037.25 Q237.477 1037.25 239.283 1033.71 Q241.111 1030.14 241.111 1023.04 Q241.111 1015.91 239.283 1012.37 Q237.477 1008.8 233.843 1008.8 M233.843 1005.1 Q239.653 1005.1 242.709 1009.71 Q245.787 1014.29 245.787 1023.04 Q245.787 1031.77 242.709 1036.37 Q239.653 1040.95 233.843 1040.95 Q228.033 1040.95 224.954 1036.37 Q221.898 1031.77 221.898 1023.04 Q221.898 1014.29 224.954 1009.71 Q228.033 1005.1 233.843 1005.1 Z" fill="#000000" fill-rule="nonzero" fill-opacity="1"></path><path clip-path="url(#clip960)" d="M258.033 1036.35 L274.352 1036.35 L274.352 1040.28 L252.408 1040.28 L252.408 1036.35 Q255.07 1033.59 259.653 1028.96 Q264.259 1024.31 265.44 1022.97 Q267.685 1020.45 268.565 1018.71 Q269.468 1016.95 269.468 1015.26 Q269.468 1012.51 267.523 1010.77 Q265.602 1009.03 262.5 1009.03 Q260.301 1009.03 257.847 1009.8 Q255.417 1010.56 252.639 1012.11 L252.639 1007.39 Q255.463 1006.26 257.917 1005.68 Q260.37 1005.1 262.408 1005.1 Q267.778 1005.1 270.972 1007.78 Q274.167 1010.47 274.167 1014.96 Q274.167 1017.09 273.357 1019.01 Q272.569 1020.91 270.463 1023.5 Q269.884 1024.17 266.782 1027.39 Q263.681 1030.58 258.033 1036.35 Z" fill="#000000" fill-rule="nonzero" fill-opacity="1"></path><path clip-path="url(#clip960)" d="M126.205 719.384 Q122.593 719.384 120.765 722.949 Q118.959 726.49 118.959 733.62 Q118.959 740.726 120.765 744.291 Q122.593 747.833 126.205 747.833 Q129.839 747.833 131.644 744.291 Q133.473 740.726 133.473 733.62 Q133.473 726.49 131.644 722.949 Q129.839 719.384 126.205 719.384 M126.205 715.68 Q132.015 715.68 135.07 720.287 Q138.149 724.87 138.149 733.62 Q138.149 742.347 135.07 746.953 Q132.015 751.537 126.205 751.537 Q120.394 751.537 117.316 746.953 Q114.26 742.347 114.26 733.62 Q114.26 724.87 117.316 720.287 Q120.394 715.68 126.205 715.68 Z" fill="#000000" fill-rule="nonzero" fill-opacity="1"></path><path clip-path="url(#clip960)" d="M146.366 744.986 L151.251 744.986 L151.251 750.865 L146.366 750.865 L146.366 744.986 Z" fill="#000000" fill-rule="nonzero" fill-opacity="1"></path><path clip-path="url(#clip960)" d="M171.436 719.384 Q167.825 719.384 165.996 722.949 Q164.19 726.49 164.19 733.62 Q164.19 740.726 165.996 744.291 Q167.825 747.833 171.436 747.833 Q175.07 747.833 176.876 744.291 Q178.704 740.726 178.704 733.62 Q178.704 726.49 176.876 722.949 Q175.07 719.384 171.436 719.384 M171.436 715.68 Q177.246 715.68 180.301 720.287 Q183.38 724.87 183.38 733.62 Q183.38 742.347 180.301 746.953 Q177.246 751.537 171.436 751.537 Q165.626 751.537 162.547 746.953 Q159.491 742.347 159.491 733.62 Q159.491 724.87 162.547 720.287 Q165.626 715.68 171.436 715.68 Z" fill="#000000" fill-rule="nonzero" fill-opacity="1"></path><path clip-path="url(#clip960)" d="M201.598 719.384 Q197.987 719.384 196.158 722.949 Q194.352 726.49 194.352 733.62 Q194.352 740.726 196.158 744.291 Q197.987 747.833 201.598 747.833 Q205.232 747.833 207.037 744.291 Q208.866 740.726 208.866 733.62 Q208.866 726.49 207.037 722.949 Q205.232 719.384 201.598 719.384 M201.598 715.68 Q207.408 715.68 210.463 720.287 Q213.542 724.87 213.542 733.62 Q213.542 742.347 210.463 746.953 Q207.408 751.537 201.598 751.537 Q195.787 751.537 192.709 746.953 Q189.653 742.347 189.653 733.62 Q189.653 724.87 192.709 720.287 Q195.787 715.68 201.598 715.68 Z" fill="#000000" fill-rule="nonzero" fill-opacity="1"></path><path clip-path="url(#clip960)" d="M231.76 719.384 Q228.148 719.384 226.32 722.949 Q224.514 726.49 224.514 733.62 Q224.514 740.726 226.32 744.291 Q228.148 747.833 231.76 747.833 Q235.394 747.833 237.199 744.291 Q239.028 740.726 239.028 733.62 Q239.028 726.49 237.199 722.949 Q235.394 719.384 231.76 719.384 M231.76 715.68 Q237.57 715.68 240.625 720.287 Q243.704 724.87 243.704 733.62 Q243.704 742.347 240.625 746.953 Q237.57 751.537 231.76 751.537 Q225.949 751.537 222.871 746.953 Q219.815 742.347 219.815 733.62 Q219.815 724.87 222.871 720.287 Q225.949 715.68 231.76 715.68 Z" fill="#000000" fill-rule="nonzero" fill-opacity="1"></path><path clip-path="url(#clip960)" d="M264.769 720.379 L252.963 738.828 L264.769 738.828 L264.769 720.379 M263.542 716.305 L269.421 716.305 L269.421 738.828 L274.352 738.828 L274.352 742.717 L269.421 742.717 L269.421 750.865 L264.769 750.865 L264.769 742.717 L249.167 742.717 L249.167 738.203 L263.542 716.305 Z" fill="#000000" fill-rule="nonzero" fill-opacity="1"></path><path clip-path="url(#clip960)" d="M126.529 429.966 Q122.918 429.966 121.089 433.531 Q119.283 437.072 119.283 444.202 Q119.283 451.308 121.089 454.873 Q122.918 458.415 126.529 458.415 Q130.163 458.415 131.968 454.873 Q133.797 451.308 133.797 444.202 Q133.797 437.072 131.968 433.531 Q130.163 429.966 126.529 429.966 M126.529 426.262 Q132.339 426.262 135.394 430.869 Q138.473 435.452 138.473 444.202 Q138.473 452.929 135.394 457.535 Q132.339 462.118 126.529 462.118 Q120.718 462.118 117.64 457.535 Q114.584 452.929 114.584 444.202 Q114.584 435.452 117.64 430.869 Q120.718 426.262 126.529 426.262 Z" fill="#000000" fill-rule="nonzero" fill-opacity="1"></path><path clip-path="url(#clip960)" d="M146.691 455.567 L151.575 455.567 L151.575 461.447 L146.691 461.447 L146.691 455.567 Z" fill="#000000" fill-rule="nonzero" fill-opacity="1"></path><path clip-path="url(#clip960)" d="M171.76 429.966 Q168.149 429.966 166.32 433.531 Q164.515 437.072 164.515 444.202 Q164.515 451.308 166.32 454.873 Q168.149 458.415 171.76 458.415 Q175.394 458.415 177.2 454.873 Q179.028 451.308 179.028 444.202 Q179.028 437.072 177.2 433.531 Q175.394 429.966 171.76 429.966 M171.76 426.262 Q177.57 426.262 180.626 430.869 Q183.704 435.452 183.704 444.202 Q183.704 452.929 180.626 457.535 Q177.57 462.118 171.76 462.118 Q165.95 462.118 162.871 457.535 Q159.815 452.929 159.815 444.202 Q159.815 435.452 162.871 430.869 Q165.95 426.262 171.76 426.262 Z" fill="#000000" fill-rule="nonzero" fill-opacity="1"></path><path clip-path="url(#clip960)" d="M201.922 429.966 Q198.311 429.966 196.482 433.531 Q194.676 437.072 194.676 444.202 Q194.676 451.308 196.482 454.873 Q198.311 458.415 201.922 458.415 Q205.556 458.415 207.362 454.873 Q209.19 451.308 209.19 444.202 Q209.19 437.072 207.362 433.531 Q205.556 429.966 201.922 429.966 M201.922 426.262 Q207.732 426.262 210.787 430.869 Q213.866 435.452 213.866 444.202 Q213.866 452.929 210.787 457.535 Q207.732 462.118 201.922 462.118 Q196.112 462.118 193.033 457.535 Q189.977 452.929 189.977 444.202 Q189.977 435.452 193.033 430.869 Q196.112 426.262 201.922 426.262 Z" fill="#000000" fill-rule="nonzero" fill-opacity="1"></path><path clip-path="url(#clip960)" d="M232.084 429.966 Q228.473 429.966 226.644 433.531 Q224.838 437.072 224.838 444.202 Q224.838 451.308 226.644 454.873 Q228.473 458.415 232.084 458.415 Q235.718 458.415 237.523 454.873 Q239.352 451.308 239.352 444.202 Q239.352 437.072 237.523 433.531 Q235.718 429.966 232.084 429.966 M232.084 426.262 Q237.894 426.262 240.949 430.869 Q244.028 435.452 244.028 444.202 Q244.028 452.929 240.949 457.535 Q237.894 462.118 232.084 462.118 Q226.273 462.118 223.195 457.535 Q220.139 452.929 220.139 444.202 Q220.139 435.452 223.195 430.869 Q226.273 426.262 232.084 426.262 Z" fill="#000000" fill-rule="nonzero" fill-opacity="1"></path><path clip-path="url(#clip960)" d="M262.824 442.304 Q259.676 442.304 257.824 444.456 Q255.996 446.609 255.996 450.359 Q255.996 454.086 257.824 456.262 Q259.676 458.415 262.824 458.415 Q265.972 458.415 267.801 456.262 Q269.653 454.086 269.653 450.359 Q269.653 446.609 267.801 444.456 Q265.972 442.304 262.824 442.304 M272.107 427.651 L272.107 431.91 Q270.347 431.077 268.542 430.637 Q266.759 430.197 265 430.197 Q260.37 430.197 257.917 433.322 Q255.486 436.447 255.139 442.767 Q256.505 440.753 258.565 439.688 Q260.625 438.6 263.102 438.6 Q268.31 438.6 271.32 441.771 Q274.352 444.919 274.352 450.359 Q274.352 455.683 271.204 458.901 Q268.056 462.118 262.824 462.118 Q256.829 462.118 253.658 457.535 Q250.486 452.929 250.486 444.202 Q250.486 436.007 254.375 431.146 Q258.264 426.262 264.815 426.262 Q266.574 426.262 268.357 426.609 Q270.162 426.957 272.107 427.651 Z" fill="#000000" fill-rule="nonzero" fill-opacity="1"></path><path clip-path="url(#clip960)" d="M126.783 140.548 Q123.172 140.548 121.343 144.112 Q119.538 147.654 119.538 154.784 Q119.538 161.89 121.343 165.455 Q123.172 168.996 126.783 168.996 Q130.417 168.996 132.223 165.455 Q134.052 161.89 134.052 154.784 Q134.052 147.654 132.223 144.112 Q130.417 140.548 126.783 140.548 M126.783 136.844 Q132.593 136.844 135.649 141.45 Q138.728 146.034 138.728 154.784 Q138.728 163.51 135.649 168.117 Q132.593 172.7 126.783 172.7 Q120.973 172.7 117.894 168.117 Q114.839 163.51 114.839 154.784 Q114.839 146.034 117.894 141.45 Q120.973 136.844 126.783 136.844 Z" fill="#000000" fill-rule="nonzero" fill-opacity="1"></path><path clip-path="url(#clip960)" d="M146.945 166.149 L151.829 166.149 L151.829 172.029 L146.945 172.029 L146.945 166.149 Z" fill="#000000" fill-rule="nonzero" fill-opacity="1"></path><path clip-path="url(#clip960)" d="M172.014 140.548 Q168.403 140.548 166.575 144.112 Q164.769 147.654 164.769 154.784 Q164.769 161.89 166.575 165.455 Q168.403 168.996 172.014 168.996 Q175.649 168.996 177.454 165.455 Q179.283 161.89 179.283 154.784 Q179.283 147.654 177.454 144.112 Q175.649 140.548 172.014 140.548 M172.014 136.844 Q177.825 136.844 180.88 141.45 Q183.959 146.034 183.959 154.784 Q183.959 163.51 180.88 168.117 Q177.825 172.7 172.014 172.7 Q166.204 172.7 163.126 168.117 Q160.07 163.51 160.07 154.784 Q160.07 146.034 163.126 141.45 Q166.204 136.844 172.014 136.844 Z" fill="#000000" fill-rule="nonzero" fill-opacity="1"></path><path clip-path="url(#clip960)" d="M202.176 140.548 Q198.565 140.548 196.737 144.112 Q194.931 147.654 194.931 154.784 Q194.931 161.89 196.737 165.455 Q198.565 168.996 202.176 168.996 Q205.811 168.996 207.616 165.455 Q209.445 161.89 209.445 154.784 Q209.445 147.654 207.616 144.112 Q205.811 140.548 202.176 140.548 M202.176 136.844 Q207.987 136.844 211.042 141.45 Q214.121 146.034 214.121 154.784 Q214.121 163.51 211.042 168.117 Q207.987 172.7 202.176 172.7 Q196.366 172.7 193.288 168.117 Q190.232 163.51 190.232 154.784 Q190.232 146.034 193.288 141.45 Q196.366 136.844 202.176 136.844 Z" fill="#000000" fill-rule="nonzero" fill-opacity="1"></path><path clip-path="url(#clip960)" d="M232.338 140.548 Q228.727 140.548 226.898 144.112 Q225.093 147.654 225.093 154.784 Q225.093 161.89 226.898 165.455 Q228.727 168.996 232.338 168.996 Q235.972 168.996 237.778 165.455 Q239.607 161.89 239.607 154.784 Q239.607 147.654 237.778 144.112 Q235.972 140.548 232.338 140.548 M232.338 136.844 Q238.148 136.844 241.204 141.45 Q244.283 146.034 244.283 154.784 Q244.283 163.51 241.204 168.117 Q238.148 172.7 232.338 172.7 Q226.528 172.7 223.449 168.117 Q220.394 163.51 220.394 154.784 Q220.394 146.034 223.449 141.45 Q226.528 136.844 232.338 136.844 Z" fill="#000000" fill-rule="nonzero" fill-opacity="1"></path><path clip-path="url(#clip960)" d="M262.5 155.617 Q259.167 155.617 257.246 157.399 Q255.347 159.182 255.347 162.307 Q255.347 165.432 257.246 167.214 Q259.167 168.996 262.5 168.996 Q265.833 168.996 267.755 167.214 Q269.676 165.408 269.676 162.307 Q269.676 159.182 267.755 157.399 Q265.857 155.617 262.5 155.617 M257.824 153.626 Q254.815 152.885 253.125 150.825 Q251.458 148.765 251.458 145.802 Q251.458 141.659 254.398 139.251 Q257.361 136.844 262.5 136.844 Q267.662 136.844 270.602 139.251 Q273.542 141.659 273.542 145.802 Q273.542 148.765 271.852 150.825 Q270.185 152.885 267.199 153.626 Q270.579 154.413 272.454 156.705 Q274.352 158.996 274.352 162.307 Q274.352 167.33 271.273 170.015 Q268.218 172.7 262.5 172.7 Q256.783 172.7 253.704 170.015 Q250.648 167.33 250.648 162.307 Q250.648 158.996 252.546 156.705 Q254.445 154.413 257.824 153.626 M256.111 146.242 Q256.111 148.927 257.778 150.432 Q259.468 151.936 262.5 151.936 Q265.509 151.936 267.199 150.432 Q268.912 148.927 268.912 146.242 Q268.912 143.557 267.199 142.052 Q265.509 140.548 262.5 140.548 Q259.468 140.548 257.778 142.052 Q256.111 143.557 256.111 146.242 Z" fill="#000000" fill-rule="nonzero" fill-opacity="1"></path><path clip-path="url(#clip960)" d="M21.7677 1106 L39.6235 1106 L39.6235 1097.91 Q39.6235 1093.43 37.3 1090.98 Q34.9765 1088.52 30.6797 1088.52 Q26.4147 1088.52 24.0912 1090.98 Q21.7677 1093.43 21.7677 1097.91 L21.7677 1106 M16.4842 1112.43 L16.4842 1097.91 Q16.4842 1089.93 20.1126 1085.85 Q23.7092 1081.75 30.6797 1081.75 Q37.7138 1081.75 41.3104 1085.85 Q44.907 1089.93 44.907 1097.91 L44.907 1106 L64.0042 1106 L64.0042 1112.43 L16.4842 1112.43 Z" fill="#000000" fill-rule="nonzero" fill-opacity="1"></path><path clip-path="url(#clip960)" d="M32.4621 1061.88 Q32.4621 1066.59 36.1542 1069.33 Q39.8145 1072.07 46.212 1072.07 Q52.6095 1072.07 56.3017 1069.36 Q59.9619 1066.63 59.9619 1061.88 Q59.9619 1057.21 56.2698 1054.47 Q52.5777 1051.73 46.212 1051.73 Q39.8781 1051.73 36.186 1054.47 Q32.4621 1057.21 32.4621 1061.88 M27.4968 1061.88 Q27.4968 1054.25 32.4621 1049.88 Q37.4273 1045.52 46.212 1045.52 Q54.9649 1045.52 59.9619 1049.88 Q64.9272 1054.25 64.9272 1061.88 Q64.9272 1069.55 59.9619 1073.92 Q54.9649 1078.24 46.212 1078.24 Q37.4273 1078.24 32.4621 1073.92 Q27.4968 1069.55 27.4968 1061.88 Z" fill="#000000" fill-rule="nonzero" fill-opacity="1"></path><path clip-path="url(#clip960)" d="M18.2347 1030.02 L28.3562 1030.02 L28.3562 1017.96 L32.9077 1017.96 L32.9077 1030.02 L52.2594 1030.02 Q56.6199 1030.02 57.8613 1028.85 Q59.1026 1027.64 59.1026 1023.98 L59.1026 1017.96 L64.0042 1017.96 L64.0042 1023.98 Q64.0042 1030.76 61.4897 1033.33 Q58.9434 1035.91 52.2594 1035.91 L32.9077 1035.91 L32.9077 1040.21 L28.3562 1040.21 L28.3562 1035.91 L18.2347 1035.91 L18.2347 1030.02 Z" fill="#000000" fill-rule="nonzero" fill-opacity="1"></path><path clip-path="url(#clip960)" d="M44.7161 979.767 L47.5806 979.767 L47.5806 1006.69 Q53.6281 1006.31 56.8109 1003.06 Q59.9619 999.787 59.9619 993.962 Q59.9619 990.588 59.1344 987.437 Q58.3069 984.254 56.6518 981.135 L62.1899 981.135 Q63.5267 984.286 64.227 987.596 Q64.9272 990.906 64.9272 994.312 Q64.9272 1002.84 59.9619 1007.84 Q54.9967 1012.8 46.5303 1012.8 Q37.7774 1012.8 32.6531 1008.09 Q27.4968 1003.35 27.4968 995.331 Q27.4968 988.137 32.1438 983.968 Q36.7589 979.767 44.7161 979.767 M42.9973 985.623 Q38.1912 985.687 35.3266 988.328 Q32.4621 990.938 32.4621 995.267 Q32.4621 1000.17 35.2312 1003.13 Q38.0002 1006.06 43.0292 1006.5 L42.9973 985.623 Z" fill="#000000" fill-rule="nonzero" fill-opacity="1"></path><path clip-path="url(#clip960)" d="M42.4881 940.522 L64.0042 940.522 L64.0042 946.378 L42.679 946.378 Q37.6183 946.378 35.1038 948.352 Q32.5894 950.325 32.5894 954.272 Q32.5894 959.014 35.6131 961.752 Q38.6368 964.489 43.8567 964.489 L64.0042 964.489 L64.0042 970.377 L28.3562 970.377 L28.3562 964.489 L33.8944 964.489 Q30.6797 962.388 29.0883 959.555 Q27.4968 956.691 27.4968 952.967 Q27.4968 946.824 31.3163 943.673 Q35.1038 940.522 42.4881 940.522 Z" fill="#000000" fill-rule="nonzero" fill-opacity="1"></path><path clip-path="url(#clip960)" d="M18.2347 923.048 L28.3562 923.048 L28.3562 910.985 L32.9077 910.985 L32.9077 923.048 L52.2594 923.048 Q56.6199 923.048 57.8613 921.87 Q59.1026 920.661 59.1026 917.001 L59.1026 910.985 L64.0042 910.985 L64.0042 917.001 Q64.0042 923.78 61.4897 926.358 Q58.9434 928.936 52.2594 928.936 L32.9077 928.936 L32.9077 933.233 L28.3562 933.233 L28.3562 928.936 L18.2347 928.936 L18.2347 923.048 Z" fill="#000000" fill-rule="nonzero" fill-opacity="1"></path><path clip-path="url(#clip960)" d="M28.3562 903.283 L28.3562 897.426 L64.0042 897.426 L64.0042 903.283 L28.3562 903.283 M14.479 903.283 L14.479 897.426 L21.895 897.426 L21.895 903.283 L14.479 903.283 Z" fill="#000000" fill-rule="nonzero" fill-opacity="1"></path><path clip-path="url(#clip960)" d="M46.0847 868.971 Q46.0847 876.069 47.7079 878.806 Q49.3312 881.544 53.2461 881.544 Q56.3653 881.544 58.2114 879.507 Q60.0256 877.438 60.0256 873.905 Q60.0256 869.035 56.5881 866.107 Q53.1188 863.147 47.3897 863.147 L46.0847 863.147 L46.0847 868.971 M43.6657 857.29 L64.0042 857.29 L64.0042 863.147 L58.5933 863.147 Q61.8398 865.152 63.3994 868.144 Q64.9272 871.136 64.9272 875.464 Q64.9272 880.939 61.8716 884.185 Q58.7843 887.4 53.6281 887.4 Q47.6125 887.4 44.5569 883.39 Q41.5014 879.347 41.5014 871.359 L41.5014 863.147 L40.9285 863.147 Q36.8862 863.147 34.6901 865.82 Q32.4621 868.462 32.4621 873.268 Q32.4621 876.324 33.1941 879.22 Q33.9262 882.117 35.3903 884.79 L29.9795 884.79 Q28.7381 881.575 28.1334 878.552 Q27.4968 875.528 27.4968 872.663 Q27.4968 864.929 31.5072 861.11 Q35.5176 857.29 43.6657 857.29 Z" fill="#000000" fill-rule="nonzero" fill-opacity="1"></path><path clip-path="url(#clip960)" d="M14.479 845.227 L14.479 839.371 L64.0042 839.371 L64.0042 845.227 L14.479 845.227 Z" fill="#000000" fill-rule="nonzero" fill-opacity="1"></path><path clip-path="url(#clip960)" d="M16.4842 806.142 L16.4842 776.096 L21.895 776.096 L21.895 799.712 L35.9632 799.712 L35.9632 777.082 L41.3741 777.082 L41.3741 799.712 L58.5933 799.712 L58.5933 775.523 L64.0042 775.523 L64.0042 806.142 L16.4842 806.142 Z" fill="#000000" fill-rule="nonzero" fill-opacity="1"></path><path clip-path="url(#clip960)" d="M42.4881 735.578 L64.0042 735.578 L64.0042 741.434 L42.679 741.434 Q37.6183 741.434 35.1038 743.408 Q32.5894 745.381 32.5894 749.328 Q32.5894 754.07 35.6131 756.808 Q38.6368 759.545 43.8567 759.545 L64.0042 759.545 L64.0042 765.433 L28.3562 765.433 L28.3562 759.545 L33.8944 759.545 Q30.6797 757.444 29.0883 754.611 Q27.4968 751.747 27.4968 748.023 Q27.4968 741.88 31.3163 738.729 Q35.1038 735.578 42.4881 735.578 Z" fill="#000000" fill-rule="nonzero" fill-opacity="1"></path><path clip-path="url(#clip960)" d="M44.7161 693.405 L47.5806 693.405 L47.5806 720.332 Q53.6281 719.95 56.8109 716.704 Q59.9619 713.425 59.9619 707.601 Q59.9619 704.227 59.1344 701.076 Q58.3069 697.893 56.6518 694.774 L62.1899 694.774 Q63.5267 697.925 64.227 701.235 Q64.9272 704.545 64.9272 707.951 Q64.9272 716.481 59.9619 721.478 Q54.9967 726.443 46.5303 726.443 Q37.7774 726.443 32.6531 721.733 Q27.4968 716.99 27.4968 708.969 Q27.4968 701.776 32.1438 697.607 Q36.7589 693.405 44.7161 693.405 M42.9973 699.262 Q38.1912 699.325 35.3266 701.967 Q32.4621 704.577 32.4621 708.906 Q32.4621 713.807 35.2312 716.767 Q38.0002 719.696 43.0292 720.141 L42.9973 699.262 Z" fill="#000000" fill-rule="nonzero" fill-opacity="1"></path><path clip-path="url(#clip960)" d="M33.8307 663.136 Q33.2578 664.123 33.0032 665.301 Q32.7167 666.446 32.7167 667.847 Q32.7167 672.812 35.9632 675.486 Q39.1779 678.127 45.2253 678.127 L64.0042 678.127 L64.0042 684.016 L28.3562 684.016 L28.3562 678.127 L33.8944 678.127 Q30.6479 676.281 29.0883 673.321 Q27.4968 670.361 27.4968 666.128 Q27.4968 665.523 27.5923 664.791 Q27.656 664.059 27.8151 663.168 L33.8307 663.136 Z" fill="#000000" fill-rule="nonzero" fill-opacity="1"></path><path clip-path="url(#clip960)" d="M45.7664 634.682 Q39.4007 634.682 35.8996 637.323 Q32.3984 639.933 32.3984 644.676 Q32.3984 649.386 35.8996 652.028 Q39.4007 654.638 45.7664 654.638 Q52.1003 654.638 55.6014 652.028 Q59.1026 649.386 59.1026 644.676 Q59.1026 639.933 55.6014 637.323 Q52.1003 634.682 45.7664 634.682 M59.58 628.825 Q68.683 628.825 73.1071 632.867 Q77.5631 636.91 77.5631 645.249 Q77.5631 648.336 77.0857 651.073 Q76.6401 653.81 75.6852 656.389 L69.9879 656.389 Q71.3884 653.81 72.0568 651.296 Q72.7252 648.782 72.7252 646.172 Q72.7252 640.411 69.7015 637.546 Q66.7096 634.682 60.6303 634.682 L57.7339 634.682 Q60.885 636.496 62.4446 639.329 Q64.0042 642.161 64.0042 646.108 Q64.0042 652.665 59.0071 656.675 Q54.01 660.685 45.7664 660.685 Q37.491 660.685 32.4939 656.675 Q27.4968 652.665 27.4968 646.108 Q27.4968 642.161 29.0564 639.329 Q30.616 636.496 33.7671 634.682 L28.3562 634.682 L28.3562 628.825 L59.58 628.825 Z" fill="#000000" fill-rule="nonzero" fill-opacity="1"></path><path clip-path="url(#clip960)" d="M67.3143 601.93 Q73.68 604.413 75.6216 606.768 Q77.5631 609.123 77.5631 613.07 L77.5631 617.749 L72.6615 617.749 L72.6615 614.311 Q72.6615 611.892 71.5157 610.556 Q70.3699 609.219 66.1048 607.595 L63.4312 606.545 L28.3562 620.963 L28.3562 614.757 L56.238 603.617 L28.3562 592.477 L28.3562 586.27 L67.3143 601.93 Z" fill="#000000" fill-rule="nonzero" fill-opacity="1"></path><path clip-path="url(#clip960)" d="M14.479 558.007 L14.479 544.511 L19.0304 544.511 L19.0304 552.15 L68.0464 552.15 L68.0464 544.511 L72.5979 544.511 L72.5979 558.007 L14.479 558.007 Z" fill="#000000" fill-rule="nonzero" fill-opacity="1"></path><path clip-path="url(#clip960)" d="M16.4842 531.78 L16.4842 523.123 L56.238 502.052 L16.4842 502.052 L16.4842 495.814 L64.0042 495.814 L64.0042 504.471 L24.2503 525.542 L64.0042 525.542 L64.0042 531.78 L16.4842 531.78 Z" fill="#000000" fill-rule="nonzero" fill-opacity="1"></path><path clip-path="url(#clip960)" d="M16.4842 472.865 L16.4842 467.454 L70.0516 484.005 L70.0516 489.416 L16.4842 472.865 Z" fill="#000000" fill-rule="nonzero" fill-opacity="1"></path><path clip-path="url(#clip960)" d="M35.1993 433.557 Q31.2526 431.361 29.3747 428.305 Q27.4968 425.25 27.4968 421.112 Q27.4968 415.542 31.4117 412.518 Q35.2948 409.495 42.4881 409.495 L64.0042 409.495 L64.0042 415.383 L42.679 415.383 Q37.5546 415.383 35.072 417.197 Q32.5894 419.011 32.5894 422.735 Q32.5894 427.287 35.6131 429.929 Q38.6368 432.57 43.8567 432.57 L64.0042 432.57 L64.0042 438.459 L42.679 438.459 Q37.5228 438.459 35.072 440.273 Q32.5894 442.087 32.5894 445.875 Q32.5894 450.363 35.6449 453.004 Q38.6686 455.646 43.8567 455.646 L64.0042 455.646 L64.0042 461.534 L28.3562 461.534 L28.3562 455.646 L33.8944 455.646 Q30.616 453.641 29.0564 450.84 Q27.4968 448.039 27.4968 444.188 Q27.4968 440.305 29.4702 437.599 Q31.4436 434.862 35.1993 433.557 Z" fill="#000000" fill-rule="nonzero" fill-opacity="1"></path><path clip-path="url(#clip960)" d="M39.1142 395.426 L39.1142 381.931 L42.7427 381.931 L42.7427 400.965 L39.2416 400.965 Q38.2549 399.882 36.4725 397.877 Q26.7648 386.928 23.7729 386.928 Q21.6722 386.928 20.3991 388.583 Q19.0941 390.238 19.0941 392.944 Q19.0941 394.599 19.667 396.54 Q20.2081 398.482 21.3221 400.774 L17.4072 400.774 Q16.516 398.323 16.0704 396.222 Q15.6248 394.09 15.6248 392.275 Q15.6248 387.66 17.7255 384.891 Q19.8262 382.122 23.2636 382.122 Q27.6878 382.122 36.7271 392.657 Q38.2549 394.44 39.1142 395.426 Z" fill="#000000" fill-rule="nonzero" fill-opacity="1"></path><path clip-path="url(#clip960)" d="M14.479 357.996 L72.5979 357.996 L72.5979 371.491 L68.0464 371.491 L68.0464 363.884 L19.0304 363.884 L19.0304 371.491 L14.479 371.491 L14.479 357.996 Z" fill="#000000" fill-rule="nonzero" fill-opacity="1"></path><polyline clip-path="url(#clip962)" style="stroke:#0000ff; stroke-linecap:round; stroke-linejoin:round; stroke-width:4; stroke-opacity:0.3; fill:none" points="2294.95,1312.42 2124.44,1312.42 1997.39,1312.42 1863.27,1312.42 1714.59,1312.42 1543.45,1312.42 1339.38,1312.42 1088.04,1312.42 770.749,1312.42 368.156,1312.42 "></polyline>
<polyline clip-path="url(#clip962)" style="stroke:#0000ff; stroke-linecap:round; stroke-linejoin:round; stroke-width:4; stroke-opacity:0.3; fill:none" points="2294.95,1272.02 2124.44,1272.69 1997.39,1290.26 1863.27,1302.9 1714.59,1307.47 1543.45,1309.88 1339.38,1311.19 1088.04,1311.87 770.749,1312.22 368.156,1312.39 "></polyline>
<polyline clip-path="url(#clip962)" style="stroke:#0000ff; stroke-linecap:round; stroke-linejoin:round; stroke-width:4; stroke-opacity:0.3; fill:none" points="2294.95,732.483 2124.44,1178.53 1997.39,1219.6 1863.27,1269.03 1714.59,1298.42 1543.45,1305.62 1339.38,1308.69 1088.04,1310.47 770.749,1311.49 368.156,1312.07 "></polyline>
<polyline clip-path="url(#clip962)" style="stroke:#0000ff; stroke-linecap:round; stroke-linejoin:round; stroke-width:4; stroke-opacity:0.3; fill:none" points="2294.95,527.287 2124.44,550.056 1997.39,594.088 1863.27,658.479 1714.59,739.501 1543.45,830.014 1339.38,1307.64 1088.04,1309.91 770.749,1311.15 368.156,1311.84 "></polyline>
<polyline clip-path="url(#clip962)" style="stroke:#0000ff; stroke-linecap:round; stroke-linejoin:round; stroke-width:4; stroke-opacity:0.3; fill:none" points="2294.95,449.326 2124.44,472.476 1997.39,515.345 1863.27,574.848 1714.59,646.683 1543.45,725.551 1339.38,805.207 1088.04,880.743 770.749,1311.06 368.156,1311.75 "></polyline>
<polyline clip-path="url(#clip962)" style="stroke:#0000ff; stroke-linecap:round; stroke-linejoin:round; stroke-width:4; stroke-opacity:0.3; fill:none" points="2294.95,375.603 2124.44,398.958 1997.39,441.96 1863.27,501.389 1714.59,572.793 1543.45,650.822 1339.38,729.63 1088.04,803.315 770.749,866.367 368.156,1311.72 "></polyline>
<polyline clip-path="url(#clip962)" style="stroke:#0000ff; stroke-linecap:round; stroke-linejoin:round; stroke-width:4; stroke-opacity:0.3; fill:none" points="2294.95,303.249 2124.44,326.604 1997.39,369.606 1863.27,429.035 1714.59,500.438 1543.45,578.467 1339.38,657.276 1088.04,730.96 770.749,794.001 368.156,841.738 "></polyline>
<polyline clip-path="url(#clip962)" style="stroke:#0000ff; stroke-linecap:round; stroke-linejoin:round; stroke-width:4; stroke-opacity:0.3; fill:none" points="2294.95,230.895 2124.44,254.249 1997.39,297.252 1863.27,356.681 1714.59,428.084 1543.45,506.113 1339.38,584.921 1088.04,658.606 770.749,721.647 368.156,769.321 "></polyline>
<polyline clip-path="url(#clip962)" style="stroke:#0000ff; stroke-linecap:round; stroke-linejoin:round; stroke-width:4; stroke-opacity:0.3; fill:none" points="2294.95,158.54 2124.44,181.895 1997.39,224.897 1863.27,284.326 1714.59,355.73 1543.45,433.758 1339.38,512.567 1088.04,586.251 770.749,649.292 368.156,696.966 "></polyline>
<polyline clip-path="url(#clip962)" style="stroke:#0000ff; stroke-linecap:round; stroke-linejoin:round; stroke-width:4; stroke-opacity:0.3; fill:none" points="2294.95,86.1857 2124.44,109.54 1997.39,152.543 1863.27,211.972 1714.59,283.375 1543.45,361.404 1339.38,440.212 1088.04,513.897 770.749,576.938 368.156,624.612 "></polyline>
<path clip-path="url(#clip962)" d="M2294.95 980.406 L2124.44 1072.8 L1997.39 1097.41 L1863.27 1127.33 L1714.59 1153.94 L1543.45 1176.88 L1339.38 1266.66 L1088.04 1275.64 L770.749 1336.84 L368.156 1384.24 L368.156 776.726 L770.749 696.474 L1088.04 608.043 L1339.38 527.293 L1543.45 425.931 L1714.59 335.042 L1863.27 252.889 L1997.39 186.181 L2124.44 138.688 L2294.95 109.195  Z" fill="#ff0000" fill-rule="evenodd" fill-opacity="0.2"></path>
<polyline clip-path="url(#clip962)" style="stroke:#ff0000; stroke-linecap:round; stroke-linejoin:round; stroke-width:4; stroke-opacity:1; fill:none" points="2294.95,544.801 2124.44,605.742 1997.39,641.797 1863.27,690.108 1714.59,744.492 1543.45,801.405 1339.38,896.975 1088.04,941.844 770.749,1016.66 368.156,1080.48 "></polyline>
<path clip-path="url(#clip960)" d="M1469.33 196.789 L2284.68 196.789 L2284.68 93.1086 L1469.33 93.1086  Z" fill="#ffffff" fill-rule="evenodd" fill-opacity="1"></path>
<polyline clip-path="url(#clip960)" style="stroke:#000000; stroke-linecap:round; stroke-linejoin:round; stroke-width:4; stroke-opacity:1; fill:none" points="1469.33,196.789 2284.68,196.789 2284.68,93.1086 1469.33,93.1086 1469.33,196.789 "></polyline>
<polyline clip-path="url(#clip960)" style="stroke:#ff0000; stroke-linecap:round; stroke-linejoin:round; stroke-width:4; stroke-opacity:1; fill:none" points="1492.02,144.949 1628.18,144.949 "></polyline>
<path clip-path="url(#clip960)" d="M1666.71 132.275 L1660.37 149.474 L1673.07 149.474 L1666.71 132.275 M1664.07 127.669 L1669.37 127.669 L1682.54 162.229 L1677.68 162.229 L1674.53 153.363 L1658.95 153.363 L1655.81 162.229 L1650.87 162.229 L1664.07 127.669 Z" fill="#000000" fill-rule="nonzero" fill-opacity="1"></path><path clip-path="url(#clip960)" d="M1681.57 136.303 L1686.08 136.303 L1694.18 158.062 L1702.29 136.303 L1706.8 136.303 L1697.08 162.229 L1691.29 162.229 L1681.57 136.303 Z" fill="#000000" fill-rule="nonzero" fill-opacity="1"></path><path clip-path="url(#clip960)" d="M1734.86 148.201 L1734.86 150.284 L1715.27 150.284 Q1715.55 154.682 1717.91 156.997 Q1720.3 159.289 1724.53 159.289 Q1726.99 159.289 1729.28 158.687 Q1731.59 158.085 1733.86 156.881 L1733.86 160.909 Q1731.57 161.881 1729.16 162.391 Q1726.75 162.9 1724.28 162.9 Q1718.07 162.9 1714.44 159.289 Q1710.83 155.678 1710.83 149.52 Q1710.83 143.155 1714.25 139.428 Q1717.7 135.678 1723.54 135.678 Q1728.77 135.678 1731.8 139.057 Q1734.86 142.414 1734.86 148.201 M1730.6 146.951 Q1730.55 143.456 1728.63 141.372 Q1726.73 139.289 1723.58 139.289 Q1720.02 139.289 1717.86 141.303 Q1715.74 143.317 1715.41 146.974 L1730.6 146.951 Z" fill="#000000" fill-rule="nonzero" fill-opacity="1"></path><path clip-path="url(#clip960)" d="M1756.87 140.284 Q1756.15 139.868 1755.3 139.682 Q1754.46 139.474 1753.44 139.474 Q1749.83 139.474 1747.89 141.835 Q1745.97 144.173 1745.97 148.571 L1745.97 162.229 L1741.68 162.229 L1741.68 136.303 L1745.97 136.303 L1745.97 140.331 Q1747.31 137.969 1749.46 136.835 Q1751.61 135.678 1754.69 135.678 Q1755.13 135.678 1755.67 135.747 Q1756.2 135.794 1756.85 135.909 L1756.87 140.284 Z" fill="#000000" fill-rule="nonzero" fill-opacity="1"></path><path clip-path="url(#clip960)" d="M1773.12 149.196 Q1767.96 149.196 1765.97 150.377 Q1763.98 151.557 1763.98 154.405 Q1763.98 156.673 1765.46 158.016 Q1766.96 159.335 1769.53 159.335 Q1773.07 159.335 1775.2 156.835 Q1777.36 154.312 1777.36 150.145 L1777.36 149.196 L1773.12 149.196 M1781.61 147.437 L1781.61 162.229 L1777.36 162.229 L1777.36 158.293 Q1775.9 160.655 1773.72 161.789 Q1771.55 162.9 1768.4 162.9 Q1764.42 162.9 1762.05 160.678 Q1759.72 158.432 1759.72 154.682 Q1759.72 150.307 1762.63 148.085 Q1765.57 145.863 1771.38 145.863 L1777.36 145.863 L1777.36 145.446 Q1777.36 142.507 1775.41 140.909 Q1773.49 139.289 1769.99 139.289 Q1767.77 139.289 1765.67 139.821 Q1763.56 140.354 1761.61 141.419 L1761.61 137.483 Q1763.95 136.581 1766.15 136.141 Q1768.35 135.678 1770.43 135.678 Q1776.06 135.678 1778.84 138.594 Q1781.61 141.511 1781.61 147.437 Z" fill="#000000" fill-rule="nonzero" fill-opacity="1"></path><path clip-path="url(#clip960)" d="M1807.45 148.965 Q1807.45 144.335 1805.53 141.789 Q1803.63 139.243 1800.18 139.243 Q1796.75 139.243 1794.83 141.789 Q1792.93 144.335 1792.93 148.965 Q1792.93 153.571 1794.83 156.118 Q1796.75 158.664 1800.18 158.664 Q1803.63 158.664 1805.53 156.118 Q1807.45 153.571 1807.45 148.965 M1811.71 159.011 Q1811.71 165.631 1808.77 168.849 Q1805.83 172.09 1799.76 172.09 Q1797.52 172.09 1795.53 171.742 Q1793.54 171.418 1791.66 170.724 L1791.66 166.58 Q1793.54 167.599 1795.36 168.085 Q1797.19 168.571 1799.09 168.571 Q1803.28 168.571 1805.36 166.372 Q1807.45 164.196 1807.45 159.775 L1807.45 157.668 Q1806.13 159.96 1804.07 161.094 Q1802.01 162.229 1799.14 162.229 Q1794.37 162.229 1791.45 158.594 Q1788.54 154.96 1788.54 148.965 Q1788.54 142.946 1791.45 139.312 Q1794.37 135.678 1799.14 135.678 Q1802.01 135.678 1804.07 136.812 Q1806.13 137.946 1807.45 140.238 L1807.45 136.303 L1811.71 136.303 L1811.71 159.011 Z" fill="#000000" fill-rule="nonzero" fill-opacity="1"></path><path clip-path="url(#clip960)" d="M1842.66 148.201 L1842.66 150.284 L1823.07 150.284 Q1823.35 154.682 1825.71 156.997 Q1828.1 159.289 1832.33 159.289 Q1834.79 159.289 1837.08 158.687 Q1839.39 158.085 1841.66 156.881 L1841.66 160.909 Q1839.37 161.881 1836.96 162.391 Q1834.55 162.9 1832.08 162.9 Q1825.87 162.9 1822.24 159.289 Q1818.63 155.678 1818.63 149.52 Q1818.63 143.155 1822.05 139.428 Q1825.5 135.678 1831.34 135.678 Q1836.57 135.678 1839.6 139.057 Q1842.66 142.414 1842.66 148.201 M1838.4 146.951 Q1838.35 143.456 1836.43 141.372 Q1834.53 139.289 1831.38 139.289 Q1827.82 139.289 1825.67 141.303 Q1823.54 143.317 1823.21 146.974 L1838.4 146.951 Z" fill="#000000" fill-rule="nonzero" fill-opacity="1"></path><path clip-path="url(#clip960)" d="M1864.9 127.669 L1886.75 127.669 L1886.75 131.604 L1869.58 131.604 L1869.58 141.835 L1886.04 141.835 L1886.04 145.77 L1869.58 145.77 L1869.58 158.293 L1887.17 158.293 L1887.17 162.229 L1864.9 162.229 L1864.9 127.669 Z" fill="#000000" fill-rule="nonzero" fill-opacity="1"></path><path clip-path="url(#clip960)" d="M1909.69 140.284 Q1908.98 139.868 1908.12 139.682 Q1907.29 139.474 1906.27 139.474 Q1902.66 139.474 1900.71 141.835 Q1898.79 144.173 1898.79 148.571 L1898.79 162.229 L1894.51 162.229 L1894.51 136.303 L1898.79 136.303 L1898.79 140.331 Q1900.13 137.969 1902.29 136.835 Q1904.44 135.678 1907.52 135.678 Q1907.96 135.678 1908.49 135.747 Q1909.02 135.794 1909.67 135.909 L1909.69 140.284 Z" fill="#000000" fill-rule="nonzero" fill-opacity="1"></path><path clip-path="url(#clip960)" d="M1928.35 140.284 Q1927.63 139.868 1926.78 139.682 Q1925.94 139.474 1924.92 139.474 Q1921.31 139.474 1919.37 141.835 Q1917.45 144.173 1917.45 148.571 L1917.45 162.229 L1913.16 162.229 L1913.16 136.303 L1917.45 136.303 L1917.45 140.331 Q1918.79 137.969 1920.94 136.835 Q1923.1 135.678 1926.17 135.678 Q1926.61 135.678 1927.15 135.747 Q1927.68 135.794 1928.33 135.909 L1928.35 140.284 Z" fill="#000000" fill-rule="nonzero" fill-opacity="1"></path><path clip-path="url(#clip960)" d="M1941.82 139.289 Q1938.4 139.289 1936.41 141.974 Q1934.41 144.636 1934.41 149.289 Q1934.41 153.942 1936.38 156.627 Q1938.37 159.289 1941.82 159.289 Q1945.22 159.289 1947.22 156.604 Q1949.21 153.918 1949.21 149.289 Q1949.21 144.682 1947.22 141.997 Q1945.22 139.289 1941.82 139.289 M1941.82 135.678 Q1947.38 135.678 1950.55 139.289 Q1953.72 142.9 1953.72 149.289 Q1953.72 155.655 1950.55 159.289 Q1947.38 162.9 1941.82 162.9 Q1936.24 162.9 1933.07 159.289 Q1929.92 155.655 1929.92 149.289 Q1929.92 142.9 1933.07 139.289 Q1936.24 135.678 1941.82 135.678 Z" fill="#000000" fill-rule="nonzero" fill-opacity="1"></path><path clip-path="url(#clip960)" d="M1975.8 140.284 Q1975.09 139.868 1974.23 139.682 Q1973.4 139.474 1972.38 139.474 Q1968.77 139.474 1966.82 141.835 Q1964.9 144.173 1964.9 148.571 L1964.9 162.229 L1960.62 162.229 L1960.62 136.303 L1964.9 136.303 L1964.9 140.331 Q1966.24 137.969 1968.4 136.835 Q1970.55 135.678 1973.63 135.678 Q1974.07 135.678 1974.6 135.747 Q1975.13 135.794 1975.78 135.909 L1975.8 140.284 Z" fill="#000000" fill-rule="nonzero" fill-opacity="1"></path><path clip-path="url(#clip960)" d="M2012.68 132.507 L2012.68 141.465 L2025.57 141.465 L2025.57 145.4 L2012.68 145.4 L2012.68 154.358 L2008.79 154.358 L2008.79 145.4 L1995.9 145.4 L1995.9 141.465 L2008.79 141.465 L2008.79 132.507 L2012.68 132.507 M1995.9 158.293 L2025.57 158.293 L2025.57 162.229 L1995.9 162.229 L1995.9 158.293 Z" fill="#000000" fill-rule="nonzero" fill-opacity="1"></path><path clip-path="url(#clip960)" d="M2036.47 158.293 L2044.11 158.293 L2044.11 131.928 L2035.8 133.595 L2035.8 129.335 L2044.07 127.669 L2048.74 127.669 L2048.74 158.293 L2056.38 158.293 L2056.38 162.229 L2036.47 162.229 L2036.47 158.293 Z" fill="#000000" fill-rule="nonzero" fill-opacity="1"></path><path clip-path="url(#clip960)" d="M2101.2 128.803 L2101.2 133.363 Q2098.53 132.09 2096.17 131.465 Q2093.81 130.84 2091.61 130.84 Q2087.79 130.84 2085.71 132.321 Q2083.65 133.803 2083.65 136.534 Q2083.65 138.826 2085.02 140.007 Q2086.4 141.164 2090.25 141.882 L2093.07 142.46 Q2098.3 143.456 2100.78 145.979 Q2103.28 148.479 2103.28 152.692 Q2103.28 157.715 2099.9 160.307 Q2096.54 162.9 2090.04 162.9 Q2087.59 162.9 2084.81 162.344 Q2082.05 161.789 2079.09 160.701 L2079.09 155.886 Q2081.94 157.483 2084.67 158.293 Q2087.4 159.104 2090.04 159.104 Q2094.04 159.104 2096.22 157.53 Q2098.4 155.956 2098.4 153.039 Q2098.4 150.493 2096.82 149.057 Q2095.27 147.622 2091.71 146.905 L2088.86 146.349 Q2083.63 145.307 2081.29 143.085 Q2078.95 140.863 2078.95 136.905 Q2078.95 132.321 2082.17 129.682 Q2085.41 127.044 2091.08 127.044 Q2093.51 127.044 2096.03 127.483 Q2098.56 127.923 2101.2 128.803 Z" fill="#000000" fill-rule="nonzero" fill-opacity="1"></path><path clip-path="url(#clip960)" d="M2114.6 128.942 L2114.6 136.303 L2123.37 136.303 L2123.37 139.613 L2114.6 139.613 L2114.6 153.687 Q2114.6 156.858 2115.46 157.761 Q2116.34 158.664 2119 158.664 L2123.37 158.664 L2123.37 162.229 L2119 162.229 Q2114.07 162.229 2112.19 160.4 Q2110.32 158.548 2110.32 153.687 L2110.32 139.613 L2107.19 139.613 L2107.19 136.303 L2110.32 136.303 L2110.32 128.942 L2114.6 128.942 Z" fill="#000000" fill-rule="nonzero" fill-opacity="1"></path><path clip-path="url(#clip960)" d="M2146.03 140.238 L2146.03 126.21 L2150.29 126.21 L2150.29 162.229 L2146.03 162.229 L2146.03 158.34 Q2144.69 160.655 2142.63 161.789 Q2140.59 162.9 2137.72 162.9 Q2133.02 162.9 2130.06 159.15 Q2127.12 155.4 2127.12 149.289 Q2127.12 143.178 2130.06 139.428 Q2133.02 135.678 2137.72 135.678 Q2140.59 135.678 2142.63 136.812 Q2144.69 137.923 2146.03 140.238 M2131.52 149.289 Q2131.52 153.988 2133.44 156.673 Q2135.39 159.335 2138.77 159.335 Q2142.15 159.335 2144.09 156.673 Q2146.03 153.988 2146.03 149.289 Q2146.03 144.59 2144.09 141.928 Q2142.15 139.243 2138.77 139.243 Q2135.39 139.243 2133.44 141.928 Q2131.52 144.59 2131.52 149.289 Z" fill="#000000" fill-rule="nonzero" fill-opacity="1"></path><path clip-path="url(#clip960)" d="M2179 131.511 L2179 158.386 L2184.64 158.386 Q2191.8 158.386 2195.11 155.145 Q2198.44 151.905 2198.44 144.914 Q2198.44 137.969 2195.11 134.752 Q2191.8 131.511 2184.64 131.511 L2179 131.511 M2174.32 127.669 L2183.93 127.669 Q2193.97 127.669 2198.67 131.858 Q2203.37 136.025 2203.37 144.914 Q2203.37 153.849 2198.65 158.039 Q2193.93 162.229 2183.93 162.229 L2174.32 162.229 L2174.32 127.669 Z" fill="#000000" fill-rule="nonzero" fill-opacity="1"></path><path clip-path="url(#clip960)" d="M2232.82 148.201 L2232.82 150.284 L2213.23 150.284 Q2213.51 154.682 2215.87 156.997 Q2218.26 159.289 2222.49 159.289 Q2224.95 159.289 2227.24 158.687 Q2229.55 158.085 2231.82 156.881 L2231.82 160.909 Q2229.53 161.881 2227.12 162.391 Q2224.71 162.9 2222.24 162.9 Q2216.03 162.9 2212.4 159.289 Q2208.79 155.678 2208.79 149.52 Q2208.79 143.155 2212.21 139.428 Q2215.66 135.678 2221.5 135.678 Q2226.73 135.678 2229.76 139.057 Q2232.82 142.414 2232.82 148.201 M2228.56 146.951 Q2228.51 143.456 2226.59 141.372 Q2224.69 139.289 2221.54 139.289 Q2217.98 139.289 2215.83 141.303 Q2213.7 143.317 2213.37 146.974 L2228.56 146.951 Z" fill="#000000" fill-rule="nonzero" fill-opacity="1"></path><path clip-path="url(#clip960)" d="M2236.75 136.303 L2241.26 136.303 L2249.37 158.062 L2257.47 136.303 L2261.98 136.303 L2252.26 162.229 L2246.47 162.229 L2236.75 136.303 Z" fill="#000000" fill-rule="nonzero" fill-opacity="1"></path><path clip-path="url(#clip960)" d="M1715.43 1329.1 L1724.98 1329.1 L1724.98 1296.15 L1714.59 1298.23 L1714.59 1292.91 L1724.92 1290.82 L1730.77 1290.82 L1730.77 1329.1 L1740.32 1329.1 L1740.32 1334.02 L1715.43 1334.02 L1715.43 1329.1 Z" fill="#000000" fill-rule="nonzero" fill-opacity="1"></path><path clip-path="url(#clip960)" d="M1793.53 1302.86 L1793.53 1307.84 Q1791.27 1306.59 1788.99 1305.98 Q1786.73 1305.35 1784.41 1305.35 Q1779.23 1305.35 1776.37 1308.65 Q1773.51 1311.92 1773.51 1317.85 Q1773.51 1323.78 1776.37 1327.08 Q1779.23 1330.35 1784.41 1330.35 Q1786.73 1330.35 1788.99 1329.74 Q1791.27 1329.1 1793.53 1327.86 L1793.53 1332.78 Q1791.3 1333.82 1788.9 1334.34 Q1786.53 1334.86 1783.84 1334.86 Q1776.51 1334.86 1772.2 1330.26 Q1767.89 1325.66 1767.89 1317.85 Q1767.89 1309.92 1772.23 1305.38 Q1776.6 1300.83 1784.18 1300.83 Q1786.64 1300.83 1788.99 1301.35 Q1791.33 1301.85 1793.53 1302.86 Z" fill="#000000" fill-rule="nonzero" fill-opacity="1"></path><path clip-path="url(#clip960)" d="M1830.51 1316.49 L1830.51 1319.09 L1806.03 1319.09 Q1806.38 1324.59 1809.33 1327.48 Q1812.31 1330.35 1817.6 1330.35 Q1820.67 1330.35 1823.53 1329.59 Q1826.43 1328.84 1829.26 1327.34 L1829.26 1332.37 Q1826.4 1333.59 1823.39 1334.22 Q1820.38 1334.86 1817.28 1334.86 Q1809.53 1334.86 1804.99 1330.35 Q1800.47 1325.83 1800.47 1318.14 Q1800.47 1310.18 1804.76 1305.52 Q1809.07 1300.83 1816.36 1300.83 Q1822.9 1300.83 1826.69 1305.06 Q1830.51 1309.25 1830.51 1316.49 M1825.18 1314.92 Q1825.13 1310.56 1822.72 1307.95 Q1820.35 1305.35 1816.42 1305.35 Q1811.96 1305.35 1809.27 1307.86 Q1806.61 1310.38 1806.2 1314.95 L1825.18 1314.92 Z" fill="#000000" fill-rule="nonzero" fill-opacity="1"></path><path clip-path="url(#clip960)" d="M1839.25 1289 L1844.57 1289 L1844.57 1334.02 L1839.25 1334.02 L1839.25 1289 Z" fill="#000000" fill-rule="nonzero" fill-opacity="1"></path><path clip-path="url(#clip960)" d="M1855.71 1289 L1861.03 1289 L1861.03 1334.02 L1855.71 1334.02 L1855.71 1289 Z" fill="#000000" fill-rule="nonzero" fill-opacity="1"></path><path clip-path="url(#clip960)" d="M1715.43 300.056 L1724.98 300.056 L1724.98 267.099 L1714.59 269.183 L1714.59 263.858 L1724.92 261.775 L1730.77 261.775 L1730.77 300.056 L1740.32 300.056 L1740.32 304.975 L1715.43 304.975 L1715.43 300.056 Z" fill="#000000" fill-rule="nonzero" fill-opacity="1"></path><path clip-path="url(#clip960)" d="M1764.62 265.624 Q1760.11 265.624 1757.82 270.08 Q1755.57 274.507 1755.57 283.419 Q1755.57 292.302 1757.82 296.758 Q1760.11 301.185 1764.62 301.185 Q1769.16 301.185 1771.42 296.758 Q1773.71 292.302 1773.71 283.419 Q1773.71 274.507 1771.42 270.08 Q1769.16 265.624 1764.62 265.624 M1764.62 260.994 Q1771.88 260.994 1775.7 266.752 Q1779.55 272.481 1779.55 283.419 Q1779.55 294.327 1775.7 300.085 Q1771.88 305.814 1764.62 305.814 Q1757.36 305.814 1753.51 300.085 Q1749.69 294.327 1749.69 283.419 Q1749.69 272.481 1753.51 266.752 Q1757.36 260.994 1764.62 260.994 Z" fill="#000000" fill-rule="nonzero" fill-opacity="1"></path><path clip-path="url(#clip960)" d="M1831.23 273.812 L1831.23 278.789 Q1828.97 277.545 1826.69 276.937 Q1824.43 276.301 1822.12 276.301 Q1816.94 276.301 1814.07 279.599 Q1811.21 282.869 1811.21 288.8 Q1811.21 294.732 1814.07 298.031 Q1816.94 301.3 1822.12 301.3 Q1824.43 301.3 1826.69 300.693 Q1828.97 300.056 1831.23 298.812 L1831.23 303.731 Q1829 304.773 1826.6 305.293 Q1824.23 305.814 1821.54 305.814 Q1814.22 305.814 1809.91 301.214 Q1805.59 296.613 1805.59 288.8 Q1805.59 280.872 1809.93 276.329 Q1814.3 271.787 1821.88 271.787 Q1824.34 271.787 1826.69 272.308 Q1829.03 272.799 1831.23 273.812 Z" fill="#000000" fill-rule="nonzero" fill-opacity="1"></path><path clip-path="url(#clip960)" d="M1868.21 287.441 L1868.21 290.045 L1843.73 290.045 Q1844.08 295.542 1847.03 298.436 Q1850.01 301.3 1855.3 301.3 Q1858.37 301.3 1861.24 300.548 Q1864.13 299.796 1866.97 298.291 L1866.97 303.326 Q1864.1 304.541 1861.09 305.178 Q1858.08 305.814 1854.99 305.814 Q1847.23 305.814 1842.69 301.3 Q1838.18 296.787 1838.18 289.09 Q1838.18 281.133 1842.46 276.474 Q1846.77 271.787 1854.06 271.787 Q1860.6 271.787 1864.39 276.011 Q1868.21 280.207 1868.21 287.441 M1862.89 285.878 Q1862.83 281.509 1860.43 278.905 Q1858.05 276.301 1854.12 276.301 Q1849.66 276.301 1846.97 278.818 Q1844.31 281.335 1843.9 285.907 L1862.89 285.878 Z" fill="#000000" fill-rule="nonzero" fill-opacity="1"></path><path clip-path="url(#clip960)" d="M1876.95 259.952 L1882.27 259.952 L1882.27 304.975 L1876.95 304.975 L1876.95 259.952 Z" fill="#000000" fill-rule="nonzero" fill-opacity="1"></path><path clip-path="url(#clip960)" d="M1893.41 259.952 L1898.74 259.952 L1898.74 304.975 L1893.41 304.975 L1893.41 259.952 Z" fill="#000000" fill-rule="nonzero" fill-opacity="1"></path><path clip-path="url(#clip960)" d="M1930.54 273.523 L1930.54 278.557 Q1928.28 277.4 1925.85 276.821 Q1923.42 276.243 1920.81 276.243 Q1916.85 276.243 1914.85 277.458 Q1912.89 278.673 1912.89 281.104 Q1912.89 282.956 1914.3 284.026 Q1915.72 285.068 1920 286.023 L1921.83 286.428 Q1927.5 287.643 1929.87 289.871 Q1932.27 292.07 1932.27 296.034 Q1932.27 300.548 1928.68 303.181 Q1925.12 305.814 1918.87 305.814 Q1916.27 305.814 1913.44 305.293 Q1910.63 304.802 1907.5 303.789 L1907.5 298.291 Q1910.45 299.825 1913.32 300.606 Q1916.18 301.358 1918.99 301.358 Q1922.75 301.358 1924.78 300.085 Q1926.8 298.783 1926.8 296.439 Q1926.8 294.269 1925.33 293.112 Q1923.88 291.954 1918.93 290.884 L1917.08 290.45 Q1912.13 289.408 1909.93 287.267 Q1907.73 285.097 1907.73 281.335 Q1907.73 276.764 1910.98 274.275 Q1914.22 271.787 1920.18 271.787 Q1923.13 271.787 1925.73 272.221 Q1928.34 272.655 1930.54 273.523 Z" fill="#000000" fill-rule="nonzero" fill-opacity="1"></path><path clip-path="url(#clip960)" d="M506.225 1543.98 L506.225 1577.57 L513.285 1577.57 Q522.226 1577.57 526.364 1573.52 Q530.53 1569.47 530.53 1560.73 Q530.53 1552.05 526.364 1548.03 Q522.226 1543.98 513.285 1543.98 L506.225 1543.98 M500.38 1539.17 L512.388 1539.17 Q524.946 1539.17 530.82 1544.41 Q536.693 1549.62 536.693 1560.73 Q536.693 1571.9 530.791 1577.14 Q524.888 1582.37 512.388 1582.37 L500.38 1582.37 L500.38 1539.17 Z" fill="#000000" fill-rule="nonzero" fill-opacity="1"></path><path clip-path="url(#clip960)" d="M573.499 1564.84 L573.499 1567.44 L549.02 1567.44 Q549.367 1572.94 552.318 1575.83 Q555.299 1578.7 560.594 1578.7 Q563.661 1578.7 566.525 1577.95 Q569.419 1577.19 572.255 1575.69 L572.255 1580.72 Q569.39 1581.94 566.381 1582.58 Q563.371 1583.21 560.275 1583.21 Q552.521 1583.21 547.978 1578.7 Q543.464 1574.18 543.464 1566.49 Q543.464 1558.53 547.747 1553.87 Q552.058 1549.18 559.35 1549.18 Q565.889 1549.18 569.679 1553.41 Q573.499 1557.61 573.499 1564.84 M568.175 1563.28 Q568.117 1558.91 565.715 1556.3 Q563.343 1553.7 559.407 1553.7 Q554.951 1553.7 552.26 1556.22 Q549.598 1558.73 549.193 1563.31 L568.175 1563.28 Z" fill="#000000" fill-rule="nonzero" fill-opacity="1"></path><path clip-path="url(#clip960)" d="M587.388 1577.51 L587.388 1594.7 L582.035 1594.7 L582.035 1549.97 L587.388 1549.97 L587.388 1554.89 Q589.066 1551.99 591.612 1550.6 Q594.187 1549.18 597.746 1549.18 Q603.649 1549.18 607.324 1553.87 Q611.027 1558.56 611.027 1566.2 Q611.027 1573.84 607.324 1578.53 Q603.649 1583.21 597.746 1583.21 Q594.187 1583.21 591.612 1581.82 Q589.066 1580.41 587.388 1577.51 M605.501 1566.2 Q605.501 1560.32 603.07 1557 Q600.669 1553.64 596.444 1553.64 Q592.22 1553.64 589.789 1557 Q587.388 1560.32 587.388 1566.2 Q587.388 1572.07 589.789 1575.43 Q592.22 1578.76 596.444 1578.76 Q600.669 1578.76 603.07 1575.43 Q605.501 1572.07 605.501 1566.2 Z" fill="#000000" fill-rule="nonzero" fill-opacity="1"></path><path clip-path="url(#clip960)" d="M619.853 1537.35 L625.177 1537.35 L625.177 1582.37 L619.853 1582.37 L619.853 1537.35 Z" fill="#000000" fill-rule="nonzero" fill-opacity="1"></path><path clip-path="url(#clip960)" d="M648.874 1553.7 Q644.592 1553.7 642.104 1557.06 Q639.615 1560.38 639.615 1566.2 Q639.615 1572.01 642.075 1575.37 Q644.563 1578.7 648.874 1578.7 Q653.128 1578.7 655.616 1575.34 Q658.105 1571.99 658.105 1566.2 Q658.105 1560.44 655.616 1557.08 Q653.128 1553.7 648.874 1553.7 M648.874 1549.18 Q655.819 1549.18 659.783 1553.7 Q663.747 1558.21 663.747 1566.2 Q663.747 1574.16 659.783 1578.7 Q655.819 1583.21 648.874 1583.21 Q641.901 1583.21 637.937 1578.7 Q634.002 1574.16 634.002 1566.2 Q634.002 1558.21 637.937 1553.7 Q641.901 1549.18 648.874 1549.18 Z" fill="#000000" fill-rule="nonzero" fill-opacity="1"></path><path clip-path="url(#clip960)" d="M686.056 1585.38 Q683.799 1591.17 681.658 1592.93 Q679.517 1594.7 675.929 1594.7 L671.675 1594.7 L671.675 1590.24 L674.8 1590.24 Q676.999 1590.24 678.215 1589.2 Q679.43 1588.16 680.906 1584.28 L681.86 1581.85 L668.753 1549.97 L674.395 1549.97 L684.522 1575.31 L694.65 1549.97 L700.292 1549.97 L686.056 1585.38 Z" fill="#000000" fill-rule="nonzero" fill-opacity="1"></path><path clip-path="url(#clip960)" d="M735.361 1564.84 L735.361 1567.44 L710.882 1567.44 Q711.229 1572.94 714.181 1575.83 Q717.161 1578.7 722.456 1578.7 Q725.523 1578.7 728.388 1577.95 Q731.281 1577.19 734.117 1575.69 L734.117 1580.72 Q731.253 1581.94 728.243 1582.58 Q725.234 1583.21 722.138 1583.21 Q714.383 1583.21 709.841 1578.7 Q705.327 1574.18 705.327 1566.49 Q705.327 1558.53 709.609 1553.87 Q713.92 1549.18 721.212 1549.18 Q727.751 1549.18 731.542 1553.41 Q735.361 1557.61 735.361 1564.84 M730.037 1563.28 Q729.979 1558.91 727.578 1556.3 Q725.205 1553.7 721.27 1553.7 Q716.814 1553.7 714.123 1556.22 Q711.461 1558.73 711.056 1563.31 L730.037 1563.28 Z" fill="#000000" fill-rule="nonzero" fill-opacity="1"></path><path clip-path="url(#clip960)" d="M765.425 1554.89 L765.425 1537.35 L770.749 1537.35 L770.749 1582.37 L765.425 1582.37 L765.425 1577.51 Q763.747 1580.41 761.171 1581.82 Q758.625 1583.21 755.037 1583.21 Q749.163 1583.21 745.46 1578.53 Q741.785 1573.84 741.785 1566.2 Q741.785 1558.56 745.46 1553.87 Q749.163 1549.18 755.037 1549.18 Q758.625 1549.18 761.171 1550.6 Q763.747 1551.99 765.425 1554.89 M747.283 1566.2 Q747.283 1572.07 749.684 1575.43 Q752.115 1578.76 756.339 1578.76 Q760.564 1578.76 762.994 1575.43 Q765.425 1572.07 765.425 1566.2 Q765.425 1560.32 762.994 1557 Q760.564 1553.64 756.339 1553.64 Q752.115 1553.64 749.684 1557 Q747.283 1560.32 747.283 1566.2 Z" fill="#000000" fill-rule="nonzero" fill-opacity="1"></path><path clip-path="url(#clip960)" d="M1898.11 1542.5 L1898.11 1548.66 Q1895.16 1545.92 1891.8 1544.56 Q1888.48 1543.2 1884.72 1543.2 Q1877.31 1543.2 1873.37 1547.74 Q1869.44 1552.25 1869.44 1560.82 Q1869.44 1569.35 1873.37 1573.9 Q1877.31 1578.41 1884.72 1578.41 Q1888.48 1578.41 1891.8 1577.05 Q1895.16 1575.69 1898.11 1572.94 L1898.11 1579.05 Q1895.04 1581.13 1891.6 1582.17 Q1888.19 1583.21 1884.37 1583.21 Q1874.56 1583.21 1868.92 1577.22 Q1863.27 1571.2 1863.27 1560.82 Q1863.27 1550.4 1868.92 1544.41 Q1874.56 1538.39 1884.37 1538.39 Q1888.25 1538.39 1891.66 1539.43 Q1895.1 1540.45 1898.11 1542.5 Z" fill="#000000" fill-rule="nonzero" fill-opacity="1"></path><path clip-path="url(#clip960)" d="M1919.47 1553.7 Q1915.18 1553.7 1912.7 1557.06 Q1910.21 1560.38 1910.21 1566.2 Q1910.21 1572.01 1912.67 1575.37 Q1915.15 1578.7 1919.47 1578.7 Q1923.72 1578.7 1926.21 1575.34 Q1928.7 1571.99 1928.7 1566.2 Q1928.7 1560.44 1926.21 1557.08 Q1923.72 1553.7 1919.47 1553.7 M1919.47 1549.18 Q1926.41 1549.18 1930.37 1553.7 Q1934.34 1558.21 1934.34 1566.2 Q1934.34 1574.16 1930.37 1578.7 Q1926.41 1583.21 1919.47 1583.21 Q1912.49 1583.21 1908.53 1578.7 Q1904.59 1574.16 1904.59 1566.2 Q1904.59 1558.21 1908.53 1553.7 Q1912.49 1549.18 1919.47 1549.18 Z" fill="#000000" fill-rule="nonzero" fill-opacity="1"></path><path clip-path="url(#clip960)" d="M1943.16 1537.35 L1948.49 1537.35 L1948.49 1582.37 L1943.16 1582.37 L1943.16 1537.35 Z" fill="#000000" fill-rule="nonzero" fill-opacity="1"></path><path clip-path="url(#clip960)" d="M1959.63 1537.35 L1964.95 1537.35 L1964.95 1582.37 L1959.63 1582.37 L1959.63 1537.35 Z" fill="#000000" fill-rule="nonzero" fill-opacity="1"></path><path clip-path="url(#clip960)" d="M1990.82 1566.08 Q1984.37 1566.08 1981.88 1567.56 Q1979.39 1569.03 1979.39 1572.59 Q1979.39 1575.43 1981.24 1577.11 Q1983.12 1578.76 1986.34 1578.76 Q1990.76 1578.76 1993.42 1575.63 Q1996.12 1572.48 1996.12 1567.27 L1996.12 1566.08 L1990.82 1566.08 M2001.44 1563.88 L2001.44 1582.37 L1996.12 1582.37 L1996.12 1577.45 Q1994.29 1580.41 1991.57 1581.82 Q1988.85 1583.21 1984.92 1583.21 Q1979.94 1583.21 1976.99 1580.43 Q1974.07 1577.63 1974.07 1572.94 Q1974.07 1567.47 1977.71 1564.69 Q1981.39 1561.92 1988.65 1561.92 L1996.12 1561.92 L1996.12 1561.4 Q1996.12 1557.72 1993.68 1555.72 Q1991.28 1553.7 1986.91 1553.7 Q1984.14 1553.7 1981.5 1554.36 Q1978.87 1555.03 1976.44 1556.36 L1976.44 1551.44 Q1979.36 1550.31 1982.11 1549.76 Q1984.86 1549.18 1987.46 1549.18 Q1994.49 1549.18 1997.97 1552.83 Q2001.44 1556.48 2001.44 1563.88 Z" fill="#000000" fill-rule="nonzero" fill-opacity="1"></path><path clip-path="url(#clip960)" d="M2017.56 1577.51 L2017.56 1594.7 L2012.2 1594.7 L2012.2 1549.97 L2017.56 1549.97 L2017.56 1554.89 Q2019.23 1551.99 2021.78 1550.6 Q2024.36 1549.18 2027.91 1549.18 Q2033.82 1549.18 2037.49 1553.87 Q2041.2 1558.56 2041.2 1566.2 Q2041.2 1573.84 2037.49 1578.53 Q2033.82 1583.21 2027.91 1583.21 Q2024.36 1583.21 2021.78 1581.82 Q2019.23 1580.41 2017.56 1577.51 M2035.67 1566.2 Q2035.67 1560.32 2033.24 1557 Q2030.84 1553.64 2026.61 1553.64 Q2022.39 1553.64 2019.96 1557 Q2017.56 1560.32 2017.56 1566.2 Q2017.56 1572.07 2019.96 1575.43 Q2022.39 1578.76 2026.61 1578.76 Q2030.84 1578.76 2033.24 1575.43 Q2035.67 1572.07 2035.67 1566.2 Z" fill="#000000" fill-rule="nonzero" fill-opacity="1"></path><path clip-path="url(#clip960)" d="M2070.68 1550.92 L2070.68 1555.96 Q2068.42 1554.8 2065.99 1554.22 Q2063.56 1553.64 2060.96 1553.64 Q2056.99 1553.64 2055 1554.86 Q2053.03 1556.07 2053.03 1558.5 Q2053.03 1560.35 2054.45 1561.42 Q2055.87 1562.47 2060.15 1563.42 L2061.97 1563.83 Q2067.64 1565.04 2070.02 1567.27 Q2072.42 1569.47 2072.42 1573.43 Q2072.42 1577.95 2068.83 1580.58 Q2065.27 1583.21 2059.02 1583.21 Q2056.42 1583.21 2053.58 1582.69 Q2050.77 1582.2 2047.65 1581.19 L2047.65 1575.69 Q2050.6 1577.22 2053.46 1578 Q2056.33 1578.76 2059.14 1578.76 Q2062.9 1578.76 2064.92 1577.48 Q2066.95 1576.18 2066.95 1573.84 Q2066.95 1571.67 2065.47 1570.51 Q2064.03 1569.35 2059.08 1568.28 L2057.23 1567.85 Q2052.28 1566.81 2050.08 1564.67 Q2047.88 1562.5 2047.88 1558.73 Q2047.88 1554.16 2051.12 1551.67 Q2054.36 1549.18 2060.32 1549.18 Q2063.27 1549.18 2065.88 1549.62 Q2068.48 1550.05 2070.68 1550.92 Z" fill="#000000" fill-rule="nonzero" fill-opacity="1"></path><path clip-path="url(#clip960)" d="M2108.61 1564.84 L2108.61 1567.44 L2084.14 1567.44 Q2084.48 1572.94 2087.43 1575.83 Q2090.41 1578.7 2095.71 1578.7 Q2098.78 1578.7 2101.64 1577.95 Q2104.53 1577.19 2107.37 1575.69 L2107.37 1580.72 Q2104.51 1581.94 2101.5 1582.58 Q2098.49 1583.21 2095.39 1583.21 Q2087.64 1583.21 2083.09 1578.7 Q2078.58 1574.18 2078.58 1566.49 Q2078.58 1558.53 2082.86 1553.87 Q2087.17 1549.18 2094.47 1549.18 Q2101 1549.18 2104.8 1553.41 Q2108.61 1557.61 2108.61 1564.84 M2103.29 1563.28 Q2103.23 1558.91 2100.83 1556.3 Q2098.46 1553.7 2094.52 1553.7 Q2090.07 1553.7 2087.38 1556.22 Q2084.71 1558.73 2084.31 1563.31 L2103.29 1563.28 Z" fill="#000000" fill-rule="nonzero" fill-opacity="1"></path><path clip-path="url(#clip960)" d="M2138.68 1554.89 L2138.68 1537.35 L2144 1537.35 L2144 1582.37 L2138.68 1582.37 L2138.68 1577.51 Q2137 1580.41 2134.42 1581.82 Q2131.88 1583.21 2128.29 1583.21 Q2122.42 1583.21 2118.71 1578.53 Q2115.04 1573.84 2115.04 1566.2 Q2115.04 1558.56 2118.71 1553.87 Q2122.42 1549.18 2128.29 1549.18 Q2131.88 1549.18 2134.42 1550.6 Q2137 1551.99 2138.68 1554.89 M2120.54 1566.2 Q2120.54 1572.07 2122.94 1575.43 Q2125.37 1578.76 2129.59 1578.76 Q2133.82 1578.76 2136.25 1575.43 Q2138.68 1572.07 2138.68 1566.2 Q2138.68 1560.32 2136.25 1557 Q2133.82 1553.64 2129.59 1553.64 Q2125.37 1553.64 2122.94 1557 Q2120.54 1560.32 2120.54 1566.2 Z" fill="#000000" fill-rule="nonzero" fill-opacity="1"></path></svg>